<svg xmlns="http://www.w3.org/2000/svg" xmlns:xlink="http://www.w3.org/1999/xlink" xmlns:inkscape="http://www.inkscape.org/namespaces/inkscape" version="1.1" width="62.37" height="79.7" viewBox="0 0 62.37 79.7">
<path transform="matrix(1,0,0,-1,-4.6794588,75.71493)" d="M21.39105 5.3769C21.39105 2.4085 19.00568 .00168 16.06197 0 13.11717 0 10.7299 2.4073 10.7299 5.3769 10.7299 8.3465 13.11717 10.75381 16.06197 10.75381 19.00568 10.7521 21.39105 8.3453 21.39105 5.3769ZM61.5161 67.46686C61.51689 66.33519 61.07166 65.24954 60.27843 64.44904 59.4852 63.64853 58.4091 63.1988 57.28691 63.1988 56.1642 63.19803 55.08733 63.64743 54.2934 64.44804 53.49956 65.24855 53.05392 66.33469 53.05473 67.46686 53.05473 68.59854 53.50076 69.68388 54.2945 70.48378 55.08823 71.28369 56.1647 71.73271 57.28691 71.73193 59.62257 71.73193 61.5161 69.82236 61.5161 67.46686ZM14.92023 61.76118C14.91695 60.02159 13.51868 58.61266 11.79391 58.61096 10.06677 58.61096 8.6662 60.02219 8.66461 61.76418 8.6662 63.50616 10.06677 64.91739 11.79391 64.91739 13.52106 64.9157 14.92023 63.50317 14.92023 61.76118ZM36.84628 57.22713C48.11119 57.22713 57.94743 53.10254 63.05235 46.99338 61.15884 52.46324 57.61578 57.21129 52.91125 60.58359 48.22478 63.94064 42.60507 65.74658 36.84032 65.74829 31.07655 65.746 25.45796 63.94005 20.77237 60.58359 16.06676 57.21179 12.5226 52.46364 10.62828 46.99338 15.74815 53.09059 25.58438 57.22713 36.84628 57.22713ZM36.84929 17.49063C25.58737 17.49063 15.74815 21.61821 10.64322 27.72737 12.53754 22.25711 16.0817 17.50896 20.78731 14.13716 25.4714 10.77922 31.0889 8.97116 36.85228 8.96649 42.61743 8.96898 48.23714 10.77602 52.92322 14.13417 57.62773 17.50647 61.17079 22.25453 63.06432 27.72438 57.94743 21.61522 48.11119 17.48764 36.84628 17.48764Z" fill="#f37626"/>
</svg>
