<svg xmlns="http://www.w3.org/2000/svg" xmlns:xlink="http://www.w3.org/1999/xlink" xmlns:inkscape="http://www.inkscape.org/namespaces/inkscape" version="1.1" width="80.44" height="61.22" viewBox="0 0 80.44 61.22">
<path transform="matrix(1,0,0,-1,4.675461,66.32984)" d="M70.97874 57.83087C70.21957 58.20149 69.8908 57.49313 69.44846 57.13449 69.29602 57.01492 69.16751 56.86548 69.03899 56.725 67.92714 55.53844 66.62999 54.76135 64.93532 54.854 62.45758 54.99149 60.34149 54.2144 58.47047 52.31947 58.07297 54.65672 56.7519 56.04953 54.74341 56.94618 53.69135 57.40944 52.62732 57.8757 51.88907 58.88892 51.375 59.60623 51.23453 60.41023 50.9775 61.20227 50.81311 61.68048 50.64871 62.16766 50.10176 62.24837 49.50398 62.34102 49.27086 61.84189 49.03773 61.42345 48.10223 59.71384 47.74059 57.83087 47.77644 55.924 47.85715 51.63203 49.66838 48.21283 53.26991 45.7829 53.6794 45.50195 53.784 45.224 53.65549 44.8175 53.4104 43.98064 53.11748 43.16469 52.86044 42.3278 52.69608 41.79282 52.45099 41.67624 51.88011 41.90936 49.93938 42.73978 48.17674 43.9362 46.68852 45.4332 44.12709 47.90796 41.81374 50.64273 38.92653 52.78574 38.25653 53.2777 37.56969 53.74623 36.86722 54.19049 33.92322 57.0508 37.25577 59.40001 38.0239 59.67798 38.83087 59.97089 38.30484 60.97214 35.69858 60.95718 33.09233 60.94823 30.70724 60.07549 27.66759 58.90985 27.21608 58.73709 26.75122 58.6012 26.2778 58.50336 23.4371 59.03748 20.53206 59.13919 17.661 58.80522 12.02705 58.17758 7.52887 55.51753 4.22021 50.96852 .24507 45.50195-.6904 39.29117 .45428 32.81735 1.65878 25.99086 5.14078 20.33897 10.49677 15.9215 16.04701 11.33961 22.44312 9.095 29.73886 9.5254 34.1683 9.77943 39.09987 10.37422 44.66507 15.08463 46.06982 14.38522 47.54033 14.10428 49.9852 13.89507 51.86517 13.72171 53.6764 13.98772 55.08115 14.28062 57.27794 14.7439 57.12552 16.77928 56.33047 17.1529 49.88956 20.15369 51.30327 18.93124 50.01807 19.92055 53.29085 23.79109 58.29115 30.67436 59.8334 40.04434 59.98283 41.07848 60.1771 42.53703 60.15619 43.3739 60.14423 43.885 60.26079 44.08525 60.84361 44.14204 62.46027 44.3118 64.02852 44.79399 65.46135 45.56172 69.63676 47.8422 71.31947 51.5872 71.71698 56.07344 71.77676 56.76088 71.70503 57.46924 70.97874 57.83087M34.61066 17.43085C28.36996 22.33852 25.34229 23.95547 24.08997 23.88672 22.92432 23.815 23.13354 22.476 23.39058 21.60625 23.65958 20.74547 24.00926 20.15068 24.49944 19.39452 24.84016 18.89539 25.0733 18.15115 24.1617 17.59225 22.15022 16.34889 18.65627 18.01068 18.4919 18.09438 14.42409 20.48843 11.01982 23.6536 8.62576 27.97545 6.3094 32.13889 4.96445 36.6072 4.74327 41.37138 4.68349 42.52208 5.02422 42.93155 6.16895 43.14078 7.6768 43.42819 9.22153 43.46655 10.74185 43.25435 17.11105 42.32483 22.53577 39.47646 27.08179 34.96333 29.67609 32.39294 31.63976 29.32341 33.6632 26.3256 35.81516 23.13951 38.1285 20.10286 41.0755 17.61317 42.1156 16.74342 42.94649 16.0799 43.74153 15.58972 41.34448 15.32074 37.34543 15.26395 34.61066 17.42786ZM37.60246 36.67891C37.60136 36.9803 37.74892 37.26294 37.9968 37.43439 38.24477 37.60576 38.56119 37.64412 38.84283 37.53671 38.97075 37.4896 39.08623 37.41397 39.18057 37.31554 39.34805 37.14508 39.4406 36.91484 39.43762 36.67593 39.43762 36.16783 39.03113 35.75836 38.51704 35.75836 38.27327 35.75597 38.03873 35.85191 37.8666 36.02457 37.69443 36.19731 37.59929 36.43214 37.60246 36.67593M46.89774 31.90575C46.29997 31.66367 45.7022 31.45445 45.13133 31.42755 44.27264 31.39886 43.4303 31.66695 42.74625 32.18672 41.9273 32.87413 41.34149 33.25671 41.09941 34.45224 41.01213 35.03616 41.02727 35.63094 41.14424 36.20967 41.35345 37.18703 41.1233 37.81467 40.43289 38.38255 39.871 38.84882 39.15965 38.97733 38.37358 38.97733 38.1063 38.99736 37.84685 39.07697 37.61443 39.21045 37.41945 39.29883 37.2711 39.46571 37.20615 39.66974 37.14119 39.87369 37.1658 40.09566 37.2737 40.28046 37.4341 40.51599 37.62738 40.7273 37.84755 40.90813 38.91159 41.51187 40.13998 41.31459 41.27275 40.86029 42.32483 40.4299 43.11986 39.64085 44.26457 38.52304 45.4362 37.17506 45.6454 36.80145 46.31192 35.78825 46.83795 34.9992 47.31616 34.18623 47.64494 33.25372 47.8422 32.67389 47.58516 32.19867 46.89774 31.90875" fill="#5786fe"/>
</svg>
