<svg xmlns="http://www.w3.org/2000/svg" xmlns:xlink="http://www.w3.org/1999/xlink" xmlns:inkscape="http://www.inkscape.org/namespaces/inkscape" version="1.1" width="79.76" height="28.99" viewBox="0 0 79.76 28.99">
<path transform="matrix(1,0,0,-1,4.041847,50.36782)" d="M14.16705 26.98016H14.01761V27.17145H14.13716C14.20291 27.17145 14.2896 27.16547 14.2896 27.08179 14.2896 26.9981 14.24477 26.98016 14.17004 26.98016ZM14.46892 27.06984C14.46892 27.24916 14.34937 27.30595 14.14314 27.30595H13.84724V26.51392H14.01761V26.84567H14.09831L14.28062 26.51392H14.48386L14.27763 26.86061C14.38522 26.86958 14.46892 26.92038 14.46892 27.06984ZM14.14014 26.34355C13.84724 26.34355 13.6141 26.5707 13.6141 26.91142 13.6141 27.24916 13.84724 27.47333 14.14014 27.47333 14.42409 27.47333 14.66917 27.24916 14.66917 26.91142 14.66917 26.5707 14.42409 26.34355 14.14014 26.34355ZM13.4019 26.91142C13.4019 26.44518 13.74861 26.17317 14.14014 26.17317 14.52869 26.17317 14.8784 26.44217 14.8784 26.91142 14.88516 27.10898 14.80945 27.30037 14.66948 27.43985 14.52939 27.57933 14.33762 27.65425 14.14014 27.64668 13.94289 27.65335 13.75171 27.57813 13.61183 27.43884 13.47205 27.29958 13.39604 27.10869 13.4019 26.91142ZM10.01257 34.04277C9.9528 32.92496 9.93787 31.89081 9.85715 30.76701 10.2995 30.72816 10.79865 30.6893 11.27087 30.75804L11.1304 33.88437 11.1035 34.0338C10.74484 34.01886 10.4041 34.00392 10.01257 34.04277ZM7.24492 37.18404C6.70094 36.91205 5.89995 36.4966 5.98662 35.74939 6.10617 35.34293 6.54553 35.0799 6.89523 34.91252 8.829 34.05771 11.3964 34.03082 13.44077 34.66446 13.94289 34.85872 14.62135 35.14267 14.714 35.75836 14.70802 36.26945 14.16705 36.59225 13.7785 36.78651V36.81042C13.91629 36.86781 14.06094 36.90698 14.2089 36.927V36.93895C13.52744 37.0615 12.86392 37.24083 12.20338 37.41718 12.33191 37.12726 12.42157 36.8194 12.52917 36.51753 12.72942 36.58029 12.93266 36.6311 13.14786 36.658 13.49756 36.5235 13.99669 36.32922 14.04451 35.89285 14.08636 35.48338 13.63802 35.28313 13.35707 35.11575 11.85968 34.57478 10.17398 34.518 8.61082 34.93643 8.18042 35.07092 7.55576 35.2443 7.50494 35.79422 7.80981 36.51753 8.60185 36.66696 9.26237 36.8433 8.92165 37.0615 8.57494 37.25577 8.24617 37.50085 7.8905 37.47992 7.5677 37.32451 7.24492 37.18404ZM10.55356 41.54773 10.36227 40.92604 9.38791 38.14046C9.633 38.11655 9.93486 38.14046 10.17398 38.11655V38.09264L10.0305 34.94241 10.05441 34.91252C10.36526 34.88263 10.75381 34.8647 11.07062 34.9185V34.96931L10.94508 38.0239 10.96303 38.1285 11.81783 38.14046C11.39063 39.27084 10.97816 40.40668 10.58044 41.54773ZM10.10524 42.9495C10.81956 43.43666 11.45917 42.7552 12.01509 42.36665 14.15808 40.63911 16.17853 38.6665 17.72076 36.43683 17.91504 36.1499 18.00172 35.70158 17.82837 35.3758 17.42786 34.70929 16.88988 34.10254 16.37878 33.48386V33.45099C15.10555 32.09406 13.76056 30.70125 12.30501 29.55055 11.59665 29.12018 10.94508 28.1757 10.0305 28.7615 7.89857 30.33612 5.9647 32.1626 4.27103 34.20117 3.9841 34.64651 3.53578 35.01115 3.33852 35.51627 3.06056 36.2037 3.67326 36.69386 4.02295 37.20795 5.74454 39.33002 7.88153 41.41322 10.10223 42.94649ZM11.89851 44.9759 11.1035 46.09972C11.00786 46.15948 10.88531 46.25513 10.7807 46.28502 10.54459 46.38664 10.29352 46.2641 10.10223 46.11765L8.6676 44.25262C6.3692 41.40427 3.64636 38.74422 .67845 36.70583 .44234 36.5235 .09563 36.34416 .0209 36.0423-.0568 35.77032 .08667 35.54616 .25404 35.3758 2.69212 33.70213 4.93227 31.75691 6.93109 29.57747 7.28975 29.19789 7.57967 28.82428 7.93236 28.47159 8.52414 27.67955 9.21754 26.88751 9.7645 26.04169 9.93486 25.86235 9.96176 25.56943 10.23076 25.48276 10.43999 25.41103 10.69702 25.3632 10.89728 25.48276L11.09453 25.68301C13.59868 29.20535 16.66183 32.29471 20.16264 34.82884 20.51234 35.13669 21.17885 35.25325 21.1878 35.83308 21.15971 36.10835 21.00938 36.35632 20.77835 36.50856L20.71857 36.51753C18.92526 37.73697 17.25452 39.11781 15.6794 40.68396L13.9399 42.50415C13.23195 43.30585 12.5502 44.13017 11.89554 44.9759ZM12.01509 42.96742C12.63078 42.49817 13.2704 41.96317 13.83827 41.4192L13.9399 41.35944C15.50266 39.92499 16.9101 38.33015 18.1392 36.60121 18.33347 36.30234 18.50385 35.96759 18.39624 35.57605 17.99872 34.58376 17.19174 33.79172 16.48639 32.92496 14.96208 31.28108 13.3481 29.69402 11.54883 28.42377 11.18419 28.16673 10.69104 27.92763 10.25467 28.13385 8.92763 28.82726 7.80981 29.966 6.64716 31.00313 5.30219 32.24947 3.95123 33.70503 2.92905 35.22635 2.78598 35.4514 2.71893 35.71652 2.73776 35.98253 2.86928 36.50856 3.23091 36.93895 3.57166 37.3843 4.77615 38.92053 6.25262 40.37909 7.74704 41.70912 7.77992 41.745 7.84268 41.81673 7.89648 41.8496 8.53908 42.40552 9.1757 42.89569 9.8452 43.37689 10.54459 43.92087 11.42628 43.46954 12.01509 42.96742ZM59.66302 43.55621H71.73193V40.4837H64.05362V37.21391H71.11922V34.1414H64.05063V30.78494H71.73193V27.71242H59.66302ZM45.1403 43.55621H57.2062V40.4837H49.52492V37.21391H56.58752V34.1414H49.52492V30.78494H57.20323V27.71242H45.13731ZM30.6146 43.55621H42.6805V40.4837H34.9992V37.21391H42.0678V34.1414H34.9992V30.78494H42.6805V27.71242H30.61159ZM23.9196 43.55621H28.3102V27.71242H23.92259Z" fill="#00629b"/>
</svg>
