<svg xmlns="http://www.w3.org/2000/svg" xmlns:xlink="http://www.w3.org/1999/xlink" xmlns:inkscape="http://www.inkscape.org/namespaces/inkscape" version="1.1" width="77.87" height="79.7" viewBox="0 0 77.87 79.7">
<path transform="matrix(1,0,0,-1,3.0674897,75.714939)" d="M37.3006 39.0939V29.29053H60.73303C60.01572 23.79109 58.18356 19.76514 55.39198 16.9377 51.9638 13.5095 46.62575 9.7645 37.3006 9.7645 22.87352 9.7645 11.59665 21.40001 11.59665 35.8271 11.59665 50.2542 22.87352 61.88971 37.3006 61.88971 45.07156 61.88971 50.77126 58.82018 54.95561 54.87492L61.85085 61.77016C56.0316 67.42801 48.2188 71.73193 37.3006 71.73193 17.53546 71.73193 .91757 55.6311 .91757 35.86597 .91757 16.10081 17.53546 0 37.3006 0 47.97969 0 56.0316 3.50589 62.32608 10.04247 68.78195 16.49834 70.81435 25.62323 70.81435 32.95782 70.81435 35.22932 70.65594 37.34244 70.29729 39.0939H37.3006Z" fill="#4285f4"/>
</svg>
