<svg xmlns="http://www.w3.org/2000/svg" xmlns:xlink="http://www.w3.org/1999/xlink" xmlns:inkscape="http://www.inkscape.org/namespaces/inkscape" version="1.1" width="62.33" height="79.77" viewBox="0 0 62.33 79.77">
<path transform="matrix(1,0,0,-1,-4.7009737,75.78495)" d="M48.90024 41.06653C48.16988 40.8567 47.56335 40.34592 47.23248 39.66177L47.01727 39.21942 47.02028 38.60074C47.02028 38.0239 47.03223 37.95216 47.19661 37.54568 47.42377 36.96883 47.65091 36.61317 48.06636 36.20668 48.78369 35.49535 49.59067 35.31004 50.67262 35.59398 51.34402 35.79912 51.90233 36.26996 52.21785 36.89711 52.46652 37.3509 52.55101 37.87665 52.45695 38.38554 52.26567 39.73949 51.47064 40.72281 50.29305 41.06653 49.83455 41.16985 49.35873 41.16985 48.90024 41.06653ZM21.39404 41.05157C20.48245 40.76466 19.801 40.09515 19.45131 39.14171 19.27664 38.64348 19.21538 38.11246 19.27197 37.58752 19.44234 36.66397 20.19852 35.82411 21.0593 35.59398 22.14125 35.31004 22.94823 35.49535 23.66556 36.20668 24.08398 36.61317 24.30815 36.96883 24.53531 37.54568 24.69969 37.95216 24.71164 38.0239 24.71164 38.60074L24.71465 39.21942 24.49944 39.66177C24.16528 40.35269 23.5501 40.86658 22.81075 41.0725 22.34338 41.17691 21.85811 41.16974 21.39404 41.05157ZM33.8993 35.07391C33.50777 34.86171 33.23279 34.3267 33.31648 33.9292 33.40913 33.5018 33.78574 33.06842 34.37155 32.71275 34.68538 32.52444 34.7063 32.49754 34.72124 32.30626 34.7332 32.19269 34.69135 31.86989 34.63457 31.57997 34.57478 31.29903 34.52696 31.00014 34.52696 30.91646 34.53294 30.69528 34.73618 30.33363 34.95438 30.16028 35.14565 30.00487 35.18152 29.99887 35.71652 29.98393 36.20668 29.969 36.3083 29.98096 36.50557 30.07361 37.01068 30.3187 37.1392 30.773 36.95389 31.64275 36.79848 32.36903 36.82837 32.47961 37.21391 32.70378 37.6234 32.94287 38.05379 33.35834 38.1823 33.64227 38.42749 34.18315 38.19505 34.82076 37.65926 35.0769 37.4892 35.15202 37.30388 35.1858 37.11829 35.17555 36.74168 35.17555 36.49959 35.08588 36.05725 34.80492L35.80319 34.64651 35.64479 34.74216C34.99023 35.1307 34.87068 35.17555 34.47615 35.16956 34.27888 35.1864 34.08054 35.15352 33.8993 35.07391ZM35.06496 41.6344C33.95012 41.52681 33.64525 41.48495 33.11024 41.37737 32.2405 41.19804 31.07785 40.79454 30.26788 40.39703 27.45839 39.02217 25.51863 36.73271 24.92685 34.07863 24.80728 33.5526 24.79234 33.37926 24.79234 32.49455 24.79234 31.61583 24.80728 31.42755 24.92087 30.92842 25.70992 27.46136 28.90198 24.89993 33.03255 24.43367 33.9292 24.33505 37.80272 24.33505 38.69937 24.43367 42.01697 24.80728 44.86832 26.60655 46.15053 29.12914 46.49124 29.80461 46.65564 30.24098 46.80807 30.92842 46.92464 31.42755 46.93958 31.61583 46.93958 32.49158 46.93958 33.37926 46.92464 33.5526 46.80507 34.07863 45.94429 37.93423 42.20528 40.9649 37.6234 41.54175 36.77437 41.62564 35.92085 41.65662 35.06795 41.6344ZM36.99275 38.83388C38.5283 38.66768 40.0029 38.14125 41.29666 37.2976 41.96317 36.85526 42.90166 35.92873 43.30217 35.319 43.79832 34.5688 44.07927 33.80067 44.20778 32.86816 44.26756 32.44075 44.23767 32.11797 44.07927 31.42755 43.84016 30.3964 43.08698 29.32042 42.07077 28.56723 41.43007 28.13644 40.73834 27.78716 40.01146 27.52713 38.86974 27.16249 38.12253 27.09673 35.4535 27.11467 33.714 27.13258 33.40317 27.14455 32.90402 27.24019 31.2004 27.56 29.84944 28.23846 28.86911 29.2726 28.08005 30.10947 27.71841 30.87163 27.52414 32.10004 27.43446 32.67389 27.59885 33.62134 27.9336 34.41937 28.34009 35.39372 29.39215 36.60121 30.43227 37.2976 31.63676 38.10161 33.22385 38.67247 34.68237 38.8279 35.24129 38.88766 36.43384 38.88766 36.99275 38.83388ZM20.54521 71.71101C19.80588 71.57332 19.10768 71.26875 18.50385 70.82034 16.78825 69.52019 15.46121 66.75253 14.8993 63.30641 14.6901 62.00328 14.54366 60.19803 14.54366 58.8142 14.54366 57.18826 14.73492 55.10805 15.00691 53.67043 15.06668 53.35062 15.09956 53.06668 15.07565 53.04874 14.89163 52.89452 14.70523 52.74309 14.51674 52.59444 13.44185 51.70686 12.48822 50.6819 11.68034 49.54584 10.21432 47.46501 9.25241 45.07166 8.87085 42.55496 8.70915 41.2089 8.68613 39.84987 8.80211 38.49913 9.07408 36.16783 9.77347 34.20117 10.97499 32.4019L11.36353 31.81909 11.25294 31.62779C10.44894 30.27684 9.7645 28.32513 9.44469 26.45114 9.19363 24.96867 9.16077 24.57117 9.16077 22.5836 9.16077 20.58109 9.18765 20.18356 9.42378 18.79973 9.70772 17.14093 10.28456 15.3835 10.92715 14.21487 11.13936 13.8323 11.65344 13.04027 11.7162 12.99841 11.73714 12.98944 11.67436 12.79816 11.57872 12.57698 10.78818 10.79137 10.23743 8.90901 9.94084 6.97891 9.75554 5.73257 9.72864 5.32907 9.72864 4.01698 9.72864 2.34325 9.82129 1.53027 10.17099 .19427L10.22179 0H14.63928L14.48985 .27197C13.60216 1.92181 13.51848 4.97939 14.2866 8.03397 14.63629 9.44469 15.03381 10.48181 15.77504 11.90749L16.21739 12.77426V13.30327C16.21739 13.79645 16.20842 13.85323 16.04701 14.179 15.89857 14.45985 15.70241 14.7127 15.46718 14.92621 14.9828 15.38809 14.59207 15.93913 14.31648 16.54913 13.04924 19.29887 12.80415 23.3816 13.69481 26.8636 14.06543 28.31618 14.67815 29.60735 15.32074 30.31271 15.73549 30.73851 15.97359 31.3055 15.98724 31.89978 15.98724 32.4826 15.77803 32.96082 15.31775 33.45996 13.98563 34.8863 13.13202 36.69287 12.87587 38.62764 12.45744 41.4969 13.21661 44.62024 14.93817 47.09799 16.62088 49.5309 18.98206 51.09106 21.62418 51.50652 22.21896 51.60515 23.3278 51.5902 23.94351 51.47662 24.61899 51.35707 25.04042 51.39294 25.4738 51.59917 26.0088 51.85321 26.2748 52.16704 26.59161 52.88736 26.86958 53.52994 27.08478 53.88263 27.66759 54.60892 28.36699 55.47568 29.04247 56.07045 30.12442 56.78778 31.3588 57.59476 32.76656 58.18356 34.16531 58.46451 34.67342 58.5691 34.91252 58.58406 35.86597 58.58406 36.8194 58.58406 37.05551 58.5691 37.5666 58.46451 39.70691 58.00414 41.68323 56.97458 43.28723 55.48465 43.63692 55.15886 44.47679 54.11874 44.74577 53.68536 44.8474 53.515 45.02971 53.15634 45.1403 52.88736 45.45412 52.16704 45.72311 51.85321 46.25812 51.60216 46.67656 51.39891 47.11293 51.35707 47.7615 51.46765 48.78667 51.641 49.57573 51.62607 50.57997 51.41983 53.99919 50.7324 56.97606 47.91394 58.29414 44.13605 59.44485 40.82443 59.11906 37.36038 57.40944 34.71227 57.11952 34.26395 56.83261 33.90529 56.41417 33.45996 55.51453 32.49754 55.51453 31.30202 56.41118 30.31271 57.88467 28.70174 58.80522 24.73555 58.52727 21.23862 58.34196 18.93124 57.75018 16.86597 56.93423 15.69733 56.73238 15.42245 56.50851 15.16463 56.26474 14.92621 56.0296 14.7127 55.83334 14.45985 55.6849 14.179 55.5235 13.85323 55.51453 13.79645 55.51453 13.30327V12.77127L55.95688 11.90451C56.6981 10.48181 57.09264 9.44469 57.44531 8.03397 58.20149 5.02122 58.13573 2.02641 57.26898 .3198 57.21896 .22505 57.17503 .12721 57.13747 .02689 57.13747 .00896 58.12079 0 59.32529 0H61.50714L61.56691 .22116 61.67451 .62166C61.73131 .84883 61.84488 1.51833 61.93753 2.16391 62.0242 2.81248 62.0242 5.20056 61.93753 5.92386 61.60876 8.53908 61.05582 10.61632 60.1532 12.57698 60.05756 12.79816 59.99478 12.98944 60.01572 12.99841 60.03963 13.01335 60.18607 13.21959 60.3385 13.45273 61.46231 15.15337 62.15273 17.29037 62.50241 20.11183 62.59506 20.88893 62.59506 24.23044 62.50241 24.97765 62.25435 26.90544 61.95845 28.21156 61.46231 29.53561 61.17926 30.25313 60.85078 30.95192 60.47897 31.62779L60.3654 31.81909 60.75693 32.39893C61.95845 34.20416 62.65784 36.17082 62.92981 38.49612 63.04498 39.84798 63.02098 41.2081 62.8581 42.55496 62.47513 45.07076 61.5144 47.46362 60.05157 49.54584 59.2428 50.6821 58.28816 51.70706 57.21219 52.59444 57.02467 52.74309 56.83928 52.89452 56.65627 53.04874 56.6475 53.25827 56.67072 53.46788 56.725 53.67043 57.3467 56.91928 57.32576 60.97214 56.6742 64.1403 56.10631 66.90196 55.07518 69.09578 53.74515 70.36305 52.6871 71.37326 51.60515 71.80367 50.30798 71.72296 47.33112 71.54662 44.92809 68.12143 43.98361 62.72658 43.84813 62.00906 43.75128 61.28467 43.6937 60.55669 43.6937 60.4491 43.67279 60.35944 43.64886 60.35944 43.49385 60.42398 43.34491 60.502 43.20354 60.59256 40.98712 61.92856 38.4538 62.64787 35.86597 62.67577 33.37926 62.67577 30.82379 61.94948 28.52539 60.58955 28.38503 60.49911 28.23697 60.4211 28.08305 60.35643 28.05913 60.35643 28.03822 60.4461 28.03822 60.5537 27.98103 61.28078 27.88428 62.00407 27.7483 62.7206 26.8905 67.57147 24.91788 70.77849 22.29668 71.58847 21.7225 71.71101 21.13393 71.75226 20.5482 71.71101ZM21.42094 67.52066C22.16217 66.93187 22.9841 65.25214 23.45932 63.37216 23.54898 63.03444 23.63866 62.6429 23.66556 62.49944 23.68646 62.35895 23.74326 62.04512 23.7881 61.80302 23.98834 60.7121 24.08101 59.53152 24.09296 58.09688L24.09892 56.6772 23.74026 56.15414 23.3876 55.62213H22.5567C21.58832 55.62213 20.62592 55.49959 19.70535 55.25151L18.99402 55.07219C18.89539 55.05127 18.88043 55.08115 18.82364 55.50258 18.51938 57.80806 18.53552 60.14452 18.87148 62.44563 19.24208 64.80083 20.10585 66.93187 20.95169 67.55951 21.15195 67.70897 21.1878 67.70598 21.42094 67.52066ZM50.7862 67.55653C51.2943 67.17993 51.8562 66.18167 52.27464 64.90245 53.11151 62.34998 53.35062 58.84111 52.90828 55.50258 52.85149 55.08414 52.83653 55.05127 52.7379 55.07219L52.02657 55.25151C51.09633 55.49889 50.13773 55.62343 49.17522 55.62213H48.34431L47.98866 56.15414 47.633 56.6772 47.63896 58.0939C47.65091 60.09341 47.83623 61.6506 48.27858 63.3901 48.74782 65.25214 49.57573 66.93187 50.31097 67.52066 50.54411 67.70598 50.57997 67.70897 50.7862 67.55653Z"/>
</svg>
