<svg xmlns="http://www.w3.org/2000/svg" xmlns:xlink="http://www.w3.org/1999/xlink" xmlns:inkscape="http://www.inkscape.org/namespaces/inkscape" version="1.1" width="79.7" height="55.41" viewBox="0 0 79.7 55.41">
<path transform="matrix(1,0,0,-1,3.9850465,63.56839)" d="M26.74405 45.4362V49.71022C27.16577 49.7415 27.5884 49.75945 28.0113 49.76402 39.7335 50.13464 47.41779 39.6797 47.41779 39.6797 47.41779 39.6797 39.12677 28.16971 30.23201 28.16971 29.04247 28.16971 27.87979 28.35503 26.77095 28.72266V41.71211C31.33788 41.15918 32.26143 39.15068 34.98126 34.58376L41.07848 39.7066C41.07848 39.7066 36.61914 45.5408 29.12315 45.5408 28.32872 45.55855 27.53389 45.52356 26.74405 45.4362M26.74405 59.58832V53.1982L28.0113 53.27888C44.30045 53.83182 54.94067 39.91881 54.94067 39.91881 54.94067 39.91881 42.74625 25.08226 30.04372 25.08226 28.93785 25.08226 27.8529 25.18687 26.77095 25.37218V21.41197C27.66759 21.30736 28.59413 21.22667 29.49078 21.22667 41.31758 21.22667 49.87462 27.27307 58.16264 34.40143 59.53452 33.29259 65.1565 30.62654 66.32214 29.46388 58.45256 22.86455 40.10413 17.55638 29.70001 17.55638 28.69875 17.55638 27.7483 17.61018 26.79784 17.7148V12.1436H71.73193V59.58832ZM26.74405 28.72563V25.34528C15.81389 27.29996 12.77724 38.67546 12.77724 38.67546 12.77724 38.67546 18.0316 44.48573 26.74405 45.4362V41.73901H26.72014C22.1532 42.29494 18.56064 38.01791 18.56064 38.01791 18.56064 38.01791 20.59303 30.80885 26.74704 28.72266M7.34056 39.15367C7.34056 39.15367 13.8084 48.70897 26.76796 49.71321V53.1982C12.41261 52.03552 0 39.8919 0 39.8919 0 39.8919 7.02374 19.56189 26.74405 17.7148V21.41197C12.2781 23.20528 7.34056 39.15367 7.34056 39.15367Z" fill="#76b900"/>
</svg>
