<svg xmlns="http://www.w3.org/2000/svg" xmlns:xlink="http://www.w3.org/1999/xlink" xmlns:inkscape="http://www.inkscape.org/namespaces/inkscape" version="1.1" width="70.53" height="79.7" viewBox="0 0 70.53 79.7">
<path transform="matrix(1,0,0,-1,-2.0733338,75.716327)" d="M35.8809 71.73193 14.80069 50.6517C9.20619 45.1139 6.05846 37.5689 6.05846 29.697 6.05846 21.82512 9.20619 14.28012 14.80069 8.74231 20.33888 3.14862 27.88379 .00139 35.75539 .00139 43.62695 .00139 51.17186 3.14862 56.71007 8.74231 68.61755 20.39877 68.62355 39.24333 56.96411 50.6547L51.7516 45.44516C60.43115 36.7626 60.43115 22.62843 51.7516 13.94887 43.07204 5.2693 28.93486 5.2693 20.2553 13.94887 11.57573 22.62843 11.57573 36.7656 20.2553 45.44516L34.1444 59.33127 35.8839 61.31885ZM46.54504 60.07848C44.35464 60.07848 42.57887 58.3027 42.57887 56.1123 42.57808 55.05994 42.9956 54.05031 43.73943 53.30588 44.48335 52.56137 45.49269 52.14313 46.54504 52.14313 47.59741 52.14313 48.60675 52.56137 49.35066 53.30588 50.09448 54.05031 50.51204 55.05994 50.51123 56.1123 50.50954 58.30162 48.73438 60.07549 46.54504 60.07549Z" fill="#ee4c2c"/>
</svg>
