<svg xmlns="http://www.w3.org/2000/svg" xmlns:xlink="http://www.w3.org/1999/xlink" xmlns:inkscape="http://www.inkscape.org/namespaces/inkscape" version="1.1" width="79.7" height="79.7" viewBox="0 0 79.7 79.7">
<path transform="matrix(1,0,0,-1,3.9850465,75.714939)" d="M35.86597 71.73193C16.05898 71.73193 0 55.67294 0 35.86597 0 25.96097 4.01399 16.99448 10.50574 10.50574L3.67326 3.67326C2.31633 2.31633 3.27873 0 5.19458 0H35.86597C55.67294 0 71.73193 16.05898 71.73193 35.86597 71.73193 55.67294 55.67294 71.73193 35.86597 71.73193ZM48.98094 62.17065C52.28061 62.17065 54.95561 59.49565 54.95561 56.19598 54.95561 52.89333 52.28061 50.21832 48.98094 50.21832 46.15352 50.21832 43.78337 52.18199 43.1617 54.81813V54.81215C39.7335 54.32797 37.0884 51.375 37.0884 47.8153V47.79439C42.39655 47.59413 47.25041 46.09972 51.09406 43.72061 52.50777 44.80556 54.27417 45.45412 56.19598 45.45412 60.8197 45.45412 64.57068 41.70613 64.57068 37.07942 64.57068 33.7409 62.613 30.85968 59.78557 29.5147 59.52255 19.78305 48.9152 11.95232 35.8839 11.95232 22.8496 11.95232 12.25719 19.77411 11.97923 29.49675 9.12788 30.83276 7.15526 33.72597 7.15526 37.08241 7.15526 41.70912 10.90623 45.45712 15.53294 45.45712 17.46074 45.45712 19.2361 44.80556 20.64983 43.70865 24.46059 46.06982 29.26064 47.56723 34.518 47.7884V47.81828C34.518 52.78871 38.2929 56.8864 43.12582 57.40347 43.68773 60.1263 46.09375 62.17065 48.98094 62.17065ZM24.81625 37.1362C22.47302 37.1362 20.45555 34.80492 20.31508 31.76529 20.1746 28.72864 22.22794 27.49425 24.57715 27.49425 26.92636 27.49425 28.67484 28.59712 28.8153 31.63377 28.95578 34.67342 27.16249 37.1362 24.81625 37.1362ZM46.95154 37.1362C44.60231 37.1362 42.812 34.67342 42.95248 31.63377 43.09296 28.59413 44.8474 27.49425 47.19064 27.49425 49.53687 27.49425 51.59319 28.72864 51.45271 31.76529 51.31523 34.80492 49.29776 37.1362 46.95154 37.1362ZM35.8839 25.14203C32.97276 25.14203 30.18419 24.99857 27.60483 24.73854 27.16547 24.69371 26.88452 24.23642 27.05788 23.82695 28.50148 20.37784 31.90575 17.9569 35.8839 17.9569 39.85904 17.9569 43.2663 20.37784 44.70992 23.82695 44.88028 24.23642 44.59933 24.69371 44.15996 24.73854 41.5806 24.99857 38.79501 25.14203 35.8839 25.14203Z" fill="#ff4500"/>
</svg>
