<svg xmlns="http://www.w3.org/2000/svg" xmlns:xlink="http://www.w3.org/1999/xlink" xmlns:inkscape="http://www.inkscape.org/namespaces/inkscape" version="1.1" width="79.7" height="55.62" viewBox="0 0 79.7 55.62">
<path transform="matrix(1,0,0,-1,3.9850465,63.67679)" d="M20.66776 59.68694C14.78574 59.68694 9.6599 55.86124 6.10916 50.3827 2.10413 44.21078 0 36.21565 0 28.54631 0 26.4362 .20921 24.4546 .62766 22.64934 .83307 21.7756 1.0977 20.91682 1.4197 20.07896 1.72803 19.2924 2.09885 18.53185 2.52853 17.80446 4.60878 14.3404 7.96223 12.04498 13.26741 12.04498 17.74168 12.04498 21.13701 14.05048 25.11813 19.34969 27.38963 22.37437 28.53734 24.20952 33.07738 32.26143L35.33693 36.26347 35.89285 37.23483C36.07518 36.93596 36.2545 36.64903 36.43982 36.3382L42.87178 25.59334C45.03569 21.97687 47.84818 17.95389 50.2542 15.68835 53.38051 12.73839 56.20795 12.04199 59.40001 12.04199 62.613 12.04199 65.00706 13.10301 66.7376 14.56157 67.70387 15.38649 68.52252 16.36992 69.15855 17.46971 70.77849 20.27623 71.73193 23.82695 71.73193 28.66289 71.73193 36.7925 69.69653 44.67404 65.5032 50.92966 61.67151 56.64432 56.66524 59.68694 51.40788 59.68694 48.27858 59.68694 45.1672 58.29115 42.28297 55.77754 40.33426 54.07391 38.52602 51.92195 36.8433 49.65045 34.781 52.26567 32.85321 54.27417 30.99117 55.79549 27.45839 58.68268 24.07204 59.68993 20.66776 59.68993ZM51.03429 53.55087C54.46246 53.55087 57.57384 51.28534 59.97685 47.5762 63.36021 42.35172 64.89946 35.03806 64.89946 28.44768 64.89946 23.82097 63.79956 19.78008 59.403 19.78008 57.66948 19.78008 56.33348 20.46751 54.42958 22.78085 52.94713 24.57715 50.41559 28.39389 45.96521 35.80618L44.12111 38.87871C42.92249 40.88362 41.67177 42.85693 40.37012 44.79659 40.57935 45.12236 40.79155 45.46608 41.00078 45.77394 44.34827 50.75632 47.33112 53.55087 51.03726 53.55087ZM20.54521 51.89804C24.3261 51.89804 26.69623 49.53387 28.54034 47.5762 29.4579 46.59885 30.7431 44.97293 32.22855 42.85683L29.17995 38.17633C26.9174 34.70032 23.55498 29.15903 20.70064 25.21077 17.14093 20.2822 15.29086 19.78008 13.2704 19.78008 11.70425 19.78008 10.16798 20.48843 9.13686 22.1532 8.35078 23.42645 7.75003 25.5306 7.75003 28.26834 7.75003 34.90654 9.633 41.82271 12.71149 46.46436 14.06842 48.51768 15.59273 50.12865 17.29337 51.04623 18.28844 51.59917 19.40688 51.89217 20.54521 51.89804Z" fill="#0467df"/>
</svg>
