<svg xmlns="http://www.w3.org/2000/svg" xmlns:xlink="http://www.w3.org/1999/xlink" xmlns:inkscape="http://www.inkscape.org/namespaces/inkscape" version="1.1" width="75.08" height="79.7" viewBox="0 0 75.08 79.7">
<path transform="matrix(1,0,0,-1,1.6747208,75.714939)" d="M30.82979 57.15839 18.84396 63.20868 5.69012 56.6437 17.99992 50.46191ZM36.32355 54.38565 48.89009 48.04245 35.85222 41.49513 23.52328 47.68738ZM53.10674 63.11691 66.01639 56.6437 54.47054 50.84479 41.8783 57.19664ZM47.55049 65.90521 35.92873 71.73193 24.43129 65.99545 36.40694 59.95564ZM38.46414 15.85931V0L52.54364 7.02583 52.5278 22.89204ZM52.5227 28.42946 52.50717 44.12918 38.46414 37.14845V21.44336ZM69.42545 31.37195V15.45045L57.41692 9.45724 57.40826 25.30643ZM69.42545 36.93895V52.53944L57.3945 46.5588 57.40466 30.82768ZM33.49344 37.14816 24.01016 41.91655V21.30856C24.01016 21.30856 12.41231 45.98553 11.33783 48.20206 11.19945 48.48808 10.62917 48.80191 10.48361 48.87814 8.40398 49.96965 2.31036 53.05621 2.31036 53.05621V16.64778L10.74005 12.14182V31.1729C10.74005 31.1729 22.21478 9.1228 22.33073 8.8822 22.447 8.64099 23.5995 6.31718 24.83 5.50063 26.46938 4.4157 33.49522 .19069 33.49522 .19069Z" fill="#013243"/>
</svg>
