<svg xmlns="http://www.w3.org/2000/svg" xmlns:xlink="http://www.w3.org/1999/xlink" xmlns:inkscape="http://www.inkscape.org/namespaces/inkscape" version="1.1" width="79.7" height="79.7" viewBox="0 0 79.7 79.7">
<path transform="matrix(1,0,0,-1,3.9850465,75.714939)" d="M35.86597 71.73193C16.05598 71.73193 0 55.67593 0 35.86597 0 16.05598 16.05598 0 35.86597 0 55.67593 0 71.73193 16.05598 71.73193 35.86597 71.73193 55.67593 55.67593 71.73193 35.86597 71.73193ZM22.02467 58.64682C23.59383 58.64682 24.8551 57.35864 24.8551 55.81639 24.8551 54.27417 23.59383 52.986 22.02467 52.986 20.46352 52.99086 19.19914 54.25523 19.19427 55.81639 19.19427 57.38554 20.45555 58.64682 22.02467 58.64682ZM19.86674 49.56676H24.18262V19.55591H19.86674V49.56676ZM30.51297 49.56676H42.1694C53.26395 49.56676 58.14171 41.63739 58.14171 34.54788 58.14171 26.84267 52.11624 19.52902 42.2262 19.52902H30.51297V49.56676ZM34.82884 45.67232V23.42346H41.69418C51.47363 23.42346 53.71526 30.84772 53.71526 34.54788 53.71526 40.57338 49.8776 45.67232 41.47002 45.67232H34.82884Z" fill="#a6ce39"/>
</svg>
