<svg xmlns="http://www.w3.org/2000/svg" xmlns:xlink="http://www.w3.org/1999/xlink" xmlns:inkscape="http://www.inkscape.org/namespaces/inkscape" version="1.1" width="79.7" height="78.2" viewBox="0 0 79.7 78.2">
<path transform="matrix(1,0,0,-1,3.9850465,74.82764)" d="M35.86597 70.84424C16.05002 70.84424 0 54.78526 0 34.97827 0 19.12851 10.27559 5.68774 24.52335 .95044 26.31664 .6127 26.97418 1.72156 26.97418 2.67499 26.97418 3.52681 26.9443 5.78337 26.92935 8.7722 16.95265 6.60829 14.84851 13.58423 14.84851 13.58423 13.21661 17.72375 10.85841 18.82962 10.85841 18.82962 7.60956 21.05331 11.10948 21.00848 11.10948 21.00848 14.71103 20.75743 16.60294 17.31429 16.60294 17.31429 19.801 11.82977 24.99857 13.41386 27.0489 14.33144 27.3717 16.65077 28.29526 18.23186 29.32042 19.12851 21.35518 20.02516 12.98347 23.10963 12.98347 36.85228 12.98347 40.76764 14.37328 43.9657 16.67468 46.4763 16.27118 47.38193 15.06071 51.02829 16.98851 55.96883 16.98851 55.96883 19.99228 56.93123 26.85164 52.29257 29.72092 53.09059 32.76953 53.4851 35.81813 53.50305 38.86674 53.4851 41.91536 53.09059 44.78462 52.29257 51.59917 56.93123 54.60295 55.96883 54.60295 55.96883 56.53073 51.02829 55.32025 47.38193 54.96161 46.4763 57.24806 43.9657 58.63785 40.76764 58.63785 36.85228 58.63785 23.07376 50.2542 20.0401 42.27402 19.15839 43.52933 18.08241 44.69496 15.88264 44.69496 12.5232 44.69496 7.72313 44.65013 3.86754 44.65013 2.7019 44.65013 1.7604 45.27779 .6396 47.11592 .99826 61.4653 5.70268 71.73193 19.15242 71.73193 34.97827 71.73193 54.78526 55.67294 70.84424 35.86597 70.84424" fill="#181717"/>
</svg>
