<svg xmlns="http://www.w3.org/2000/svg" xmlns:xlink="http://www.w3.org/1999/xlink" xmlns:inkscape="http://www.inkscape.org/namespaces/inkscape" version="1.1" width="83.78" height="76.32" viewBox="0 0 83.78 76.32">
<path transform="matrix(1,0,0,-1,6.0253984,73.13992)" d="M35.94067 68.35455C18.69513 68.35455 4.71039 54.46545 4.71039 37.33646 4.71039 34.01288 5.2424 30.81783 6.21378 27.81705 6.40506 28.48056 6.8205 29.14409 7.45712 29.54158 7.92488 29.83919 8.46884 29.99489 9.02328 29.98993 9.899 29.98993 10.76875 29.6193 11.53389 29.1411 12.36478 28.62402 12.96852 27.92165 13.65596 27.06685 14.33144 26.224 15.02484 25.24068 15.70032 24.22447V24.2663C15.75113 25.23468 16.01714 26.12537 16.48936 26.87856 16.9616 27.63173 17.69386 28.3341 18.76686 28.50148 19.66351 28.64195 20.5482 28.32214 21.11906 27.89474 21.68993 27.46735 22.04561 26.95924 22.31459 26.49898 22.76294 25.73083 22.94823 25.10019 23.011 24.87901 23.0409 24.8013 24.9627 20.24034 27.96349 17.2874 29.80461 15.47914 30.98222 13.63205 31.1974 11.57274 31.3618 9.96774 30.91048 8.40756 30.06165 6.8743 31.96555 6.51265 33.9292 6.3154 35.94067 6.3154 37.90434 6.3154 39.82018 6.5037 41.68222 6.8474 40.82443 8.39262 40.36714 9.95877 40.53452 11.57274 40.74373 13.63504 41.92432 15.47914 43.76544 17.29037 46.76622 20.24034 48.68803 24.8013 48.71793 24.87901 48.7807 25.10019 48.966 25.73083 49.41432 26.49898 49.68332 26.95924 50.03601 27.46436 50.60986 27.89474 51.28503 28.39557 52.12889 28.61327 52.96207 28.50148 54.03506 28.3341 54.76732 27.63472 55.23956 26.87856 55.71179 26.12238 55.9778 25.23468 56.0316 24.2663V24.22147C56.70409 25.23767 57.39749 26.224 58.07297 27.06685 58.76039 27.92165 59.36415 28.62103 60.19504 29.1411 60.96317 29.6193 61.82994 29.98993 62.70566 29.9929 63.26009 29.9953 63.80365 29.83868 64.2718 29.54158 64.95326 29.1142 65.38664 28.38193 65.557 27.67357L65.57494 27.55402C66.6319 30.70724 67.17088 34.0109 67.17097 37.33646 67.17097 54.46545 53.18922 68.35455 35.94067 68.35455" fill="#ffd21e"/>
<path transform="matrix(1,0,0,-1,6.0253984,73.13992)" stroke-width="1.59404" stroke-linecap="butt" stroke-miterlimit="10" stroke-linejoin="miter" fill="none" stroke="#ff9d0b" d="M35.94067 68.35455C18.69513 68.35455 4.71039 54.46545 4.71039 37.33646 4.71039 34.01288 5.2424 30.81783 6.21378 27.81705 6.40506 28.48056 6.8205 29.14409 7.45712 29.54158 7.92488 29.83919 8.46884 29.99489 9.02328 29.98993 9.899 29.98993 10.76875 29.6193 11.53389 29.1411 12.36478 28.62402 12.96852 27.92165 13.65596 27.06685 14.33144 26.224 15.02484 25.24068 15.70032 24.22447V24.2663C15.75113 25.23468 16.01714 26.12537 16.48936 26.87856 16.9616 27.63173 17.69386 28.3341 18.76686 28.50148 19.66351 28.64195 20.5482 28.32214 21.11906 27.89474 21.68993 27.46735 22.04561 26.95924 22.31459 26.49898 22.76294 25.73083 22.94823 25.10019 23.011 24.87901 23.0409 24.8013 24.9627 20.24034 27.96349 17.2874 29.80461 15.47914 30.98222 13.63205 31.1974 11.57274 31.3618 9.96774 30.91048 8.40756 30.06165 6.8743 31.96555 6.51265 33.9292 6.3154 35.94067 6.3154 37.90434 6.3154 39.82018 6.5037 41.68222 6.8474 40.82443 8.39262 40.36714 9.95877 40.53452 11.57274 40.74373 13.63504 41.92432 15.47914 43.76544 17.29037 46.76622 20.24034 48.68803 24.8013 48.71793 24.87901 48.7807 25.10019 48.966 25.73083 49.41432 26.49898 49.68332 26.95924 50.03601 27.46436 50.60986 27.89474 51.28503 28.39557 52.12889 28.61327 52.96207 28.50148 54.03506 28.3341 54.76732 27.63472 55.23956 26.87856 55.71179 26.12238 55.9778 25.23468 56.0316 24.2663V24.22147C56.70409 25.23767 57.39749 26.224 58.07297 27.06685 58.76039 27.92165 59.36415 28.62103 60.19504 29.1411 60.96317 29.6193 61.82994 29.98993 62.70566 29.9929 63.26009 29.9953 63.80365 29.83868 64.2718 29.54158 64.95326 29.1142 65.38664 28.38193 65.557 27.67357L65.57494 27.55402C66.6319 30.70724 67.17088 34.0109 67.17097 37.33646 67.17097 54.46545 53.18922 68.35455 35.94067 68.35455"/>
<path transform="matrix(1,0,0,-1,6.0253984,73.13992)" d="M24.88799 52.05646C25.6304 52.06224 26.36267 51.8835 27.01901 51.5364 28.06242 50.98416 28.84329 50.03938 29.18921 48.91072 29.53522 47.78203 29.41786 46.56198 28.86313 45.51988 28.31618 44.4947 26.58563 46.15948 25.56943 45.80083 24.43367 45.40033 23.97939 43.06903 22.82867 43.67876 21.02083 44.6298 20.0941 46.6908 20.58238 48.6744 21.07065 50.65799 22.8482 52.05327 24.89096 52.05646" fill="#3a3b45"/>
<path transform="matrix(1,0,0,-1,6.0253984,73.13992)" d="M47.26537 52.05646C49.30762 52.05186 51.08388 50.65619 51.57137 48.673 52.05885 46.68982 51.13202 44.62961 49.32466 43.67876 48.17397 43.06903 47.72266 45.40033 46.5869 45.80083 45.5707 46.15948 43.83717 44.4947 43.2902 45.51988 42.73549 46.56198 42.61813 47.78203 42.96413 48.91072 43.31003 50.03938 44.09093 50.98416 45.13432 51.5364 45.79068 51.8835 46.52292 52.06224 47.26537 52.05646" fill="#3a3b45"/>
<path transform="matrix(1,0,0,-1,6.0253984,73.13992)" d="M15.34464 47.42377C16.93011 47.42377 18.21541 46.13847 18.21541 44.553 18.21541 42.96751 16.93011 41.68222 15.34464 41.68222 13.75998 41.68222 12.47537 42.96681 12.47537 44.5515 12.47537 46.13617 13.75998 47.42079 15.34464 47.42079" fill="#ff9d0b"/>
<path transform="matrix(1,0,0,-1,6.0253984,73.13992)" d="M56.70409 47.42079C58.28877 47.42079 59.57336 46.13617 59.57336 44.5515 59.57336 42.96681 58.28877 41.68222 56.70409 41.68222 55.1194 41.68222 53.83481 42.96681 53.83481 44.5515 53.83481 46.13617 55.1194 47.42079 56.70409 47.42079" fill="#ff9d0b"/>
<path transform="matrix(1,0,0,-1,6.0253984,73.13992)" d="M25.37218 37.48592C27.12961 37.45601 31.24522 34.02783 36.04828 34.00691 40.85133 34.02783 44.96695 37.459 46.72438 37.48592 47.3102 37.49487 47.63597 37.12726 47.63597 36.12898 47.63597 33.48088 46.36871 29.17097 42.96443 26.55875 42.30688 28.8183 38.79202 30.64148 38.09264 30.504 38.07072 30.502 38.05078 30.49603 38.03287 30.48607L37.90135 30.40836 37.87146 30.38445 37.7818 30.31271C37.74593 30.27884 37.71107 30.24298 37.67719 30.20511L37.58154 30.08556C37.51898 29.99908 37.4611 29.90921 37.4082 29.81656L37.36635 29.74184C37.26872 29.5665 37.15913 29.37721 37.03758 29.17397 36.96326 29.05261 36.88037 28.93677 36.7895 28.82726 36.63628 28.6304 36.46303 28.45018 36.27245 28.28928 36.2027 28.23149 36.12798 28.1737 36.04828 28.11592 35.76663 28.32315 35.51437 28.56743 35.29808 28.84221 35.2155 28.94373 35.13957 29.05054 35.07092 29.162 34.70032 29.73886 34.54192 30.24696 34.06369 30.48904 33.96208 30.53688 33.75285 30.51297 33.46593 30.4233 33.27863 30.36353 33.06343 30.27684 32.82033 30.16327 32.70079 30.10748 32.57625 30.04471 32.44673 29.97498L32.05818 29.7538C31.9247 29.6741 31.7892 29.58842 31.65172 29.49675 31.51462 29.4048 31.38002 29.30916 31.24821 29.20984 30.97704 29.00648 30.71759 28.78801 30.47113 28.55528 30.34648 28.43991 30.22684 28.31926 30.11247 28.19363 30.00157 28.0706 29.89587 27.94296 29.79564 27.81105L29.78967 27.80508C29.69482 27.67715 29.60506 27.54555 29.52068 27.41055L29.51768 27.40756C29.39246 27.20721 29.28735 26.99501 29.20386 26.77393 29.17795 26.70221 29.15404 26.62949 29.13213 26.55576 25.72784 29.17097 24.46059 33.48088 24.46059 36.12898 24.46059 37.12726 24.78636 37.49487 25.37218 37.48592" fill="#ff323d"/>
<path transform="matrix(1,0,0,-1,6.0253984,73.13992)" d="M27.87085 6.53955C30.33363 10.09627 30.16028 12.7623 26.77992 16.08588 23.40254 19.40945 21.43289 24.2693 21.43289 24.2693 21.43289 24.2693 20.69763 27.09375 19.0239 26.83372 17.35014 26.57368 16.12473 22.35345 19.62764 19.77411 23.13354 17.19174 18.93124 15.44029 17.58029 17.86124 16.23532 20.28818 12.5501 26.51689 10.64023 27.70944 8.73036 28.90198 7.38539 28.23248 7.8367 25.77567 8.28802 23.31885 16.27118 17.36809 15.4941 16.0799 14.717 14.79172 11.97923 17.59225 11.97923 17.59225 11.97923 17.59225 3.41324 25.26457 1.5482 23.26506-.3168 21.26552 2.96193 19.58879 7.63644 16.80917 12.31097 14.02359 12.67563 13.28833 12.01212 12.23627 11.34859 11.18419 1.02815 19.74123 .0568 16.11278-.9086 12.48434 10.58942 11.42928 9.88107 8.92464 9.16972 6.417 1.78133 13.66791 .269 10.84348-1.24335 8.01604 10.70001 4.69844 10.79565 4.67453 14.65123 3.6882 24.44862 1.602 27.87085 6.53955" fill="#ffd21e"/>
<path transform="matrix(1,0,0,-1,6.0253984,73.13992)" stroke-width="1.59404" stroke-linecap="butt" stroke-miterlimit="10" stroke-linejoin="miter" fill="none" stroke="#ff9d0b" d="M27.87085 6.53955C30.33363 10.09627 30.16028 12.7623 26.77992 16.08588 23.40254 19.40945 21.43289 24.2693 21.43289 24.2693 21.43289 24.2693 20.69763 27.09375 19.0239 26.83372 17.35014 26.57368 16.12473 22.35345 19.62764 19.77411 23.13354 17.19174 18.93124 15.44029 17.58029 17.86124 16.23532 20.28818 12.5501 26.51689 10.64023 27.70944 8.73036 28.90198 7.38539 28.23248 7.8367 25.77567 8.28802 23.31885 16.27118 17.36809 15.4941 16.0799 14.717 14.79172 11.97923 17.59225 11.97923 17.59225 11.97923 17.59225 3.41324 25.26457 1.5482 23.26506-.3168 21.26552 2.96193 19.58879 7.63644 16.80917 12.31097 14.02359 12.67563 13.28833 12.01212 12.23627 11.34859 11.18419 1.02815 19.74123 .0568 16.11278-.9086 12.48434 10.58942 11.42928 9.88107 8.92464 9.16972 6.417 1.78133 13.66791 .269 10.84348-1.24335 8.01604 10.70001 4.69844 10.79565 4.67453 14.65123 3.6882 24.44862 1.602 27.87085 6.53955"/>
<path transform="matrix(1,0,0,-1,6.0253984,73.13992)" d="M43.8581 6.53955C41.3953 10.09627 41.56865 12.7623 44.94902 16.08588 48.3264 19.40945 50.29602 24.2693 50.29602 24.2693 50.29602 24.2693 51.03128 27.09375 52.70502 26.83372 54.37877 26.57368 55.60419 22.35345 52.10129 19.77411 48.59538 17.19174 52.79768 15.44029 54.14864 17.86124 55.4966 20.28818 59.17883 26.51689 61.0887 27.70944 62.99855 28.90198 64.34354 28.23248 63.89223 25.77567 63.4409 23.31885 55.45773 17.36809 56.23485 16.0799 57.01195 14.79172 59.74971 17.59225 59.74971 17.59225 59.74971 17.59225 68.31569 25.26457 70.18071 23.26506 72.04576 21.26552 68.76701 19.58879 64.09247 16.80917 59.41794 14.02359 59.05331 13.28833 59.71683 12.23627 60.38036 11.18419 70.70078 19.74123 71.67215 16.11278 72.63754 12.48434 61.13951 11.42928 61.84785 8.92464 62.5592 6.417 69.9476 13.66791 71.45995 10.84348 72.97229 8.01604 61.02893 4.69844 60.93327 4.67453 57.07768 3.6882 47.2803 1.602 43.8581 6.53955" fill="#ffd21e"/>
<path transform="matrix(1,0,0,-1,6.0253984,73.13992)" stroke-width="1.59404" stroke-linecap="butt" stroke-miterlimit="10" stroke-linejoin="miter" fill="none" stroke="#ff9d0b" d="M43.8581 6.53955C41.3953 10.09627 41.56865 12.7623 44.94902 16.08588 48.3264 19.40945 50.29602 24.2693 50.29602 24.2693 50.29602 24.2693 51.03128 27.09375 52.70502 26.83372 54.37877 26.57368 55.60419 22.35345 52.10129 19.77411 48.59538 17.19174 52.79768 15.44029 54.14864 17.86124 55.4966 20.28818 59.17883 26.51689 61.0887 27.70944 62.99855 28.90198 64.34354 28.23248 63.89223 25.77567 63.4409 23.31885 55.45773 17.36809 56.23485 16.0799 57.01195 14.79172 59.74971 17.59225 59.74971 17.59225 59.74971 17.59225 68.31569 25.26457 70.18071 23.26506 72.04576 21.26552 68.76701 19.58879 64.09247 16.80917 59.41794 14.02359 59.05331 13.28833 59.71683 12.23627 60.38036 11.18419 70.70078 19.74123 71.67215 16.11278 72.63754 12.48434 61.13951 11.42928 61.84785 8.92464 62.5592 6.417 69.9476 13.66791 71.45995 10.84348 72.97229 8.01604 61.02893 4.69844 60.93327 4.67453 57.07768 3.6882 47.2803 1.602 43.8581 6.53955"/>
</svg>
