<svg xmlns="http://www.w3.org/2000/svg" xmlns:xlink="http://www.w3.org/1999/xlink" xmlns:inkscape="http://www.inkscape.org/namespaces/inkscape" version="1.1" width="90.23" height="65.94" viewBox="0 0 90.23 65.94">
<path transform="matrix(1,0,0,-1,6.872223,68.900897)" d="M36.43384 64.61852C23.59073 64.9162 12.2013 56.41406 8.83498 44.0165 8.99338 44.07628 8.6706 43.97765 8.83498 44.0165-2.74673 36.392-2.88719 19.77708 8.09674 11.3157L8.11467 11.33662 8.09373 11.24696C11.60234 8.59836 15.88324 7.17447 20.2792 7.1941H35.74042L35.8301 7.10445H51.3481C71.33441 6.94603 79.37138 32.82333 62.81027 44.0165 61.384 49.27554 58.45366 54.00397 54.37877 57.62166L54.25026 57.49313 54.26819 57.64258C49.33134 61.99712 43.01495 64.46777 36.43384 64.61852ZM35.36383 52.22682C39.08194 52.34637 42.88971 51.12692 45.7829 48.78966 49.38893 45.7799 51.43558 41.29736 51.3481 36.60121V35.05301C61.89868 35.2622 61.89868 19.32576 51.3481 19.532H35.8271L35.80319 19.5051V19.62465H20.2792C19.17941 19.62465 18.09227 19.85898 17.09013 20.31209H17.09311C13.94955 21.73546 12.12318 25.06323 12.61067 28.47937 13.09805 31.8955 15.7823 34.57977 19.19846 35.06714 22.61458 35.55463 25.94235 33.72824 27.36572 30.5847L36.37108 39.58705C33.37866 43.48778 29.06438 46.16089 24.23941 47.10396 24.29321 47.13385 24.35896 47.18167 24.4008 47.1727 27.22395 50.27003 31.18097 52.09221 35.36981 52.22383Z" fill="#4285f4"/>
</svg>
