<svg xmlns="http://www.w3.org/2000/svg" xmlns:xlink="http://www.w3.org/1999/xlink" xmlns:inkscape="http://www.inkscape.org/namespaces/inkscape" version="1.1" width="79.79" height="35.78" viewBox="0 0 79.79 35.78">
<path transform="matrix(1,0,0,-1,3.9841538,53.7545)" d="M.30634 49.7715C.1028 49.7715 .00089 49.66957 .00089 49.46664V29.28604C.00089 29.0825 .10251 28.98059 .30634 28.98059H2.41316C2.61642 28.98059 2.71864 29.08221 2.71864 29.28635V33.71281L3.97005 34.90385 8.45808 29.19519C8.58063 29.05261 8.72229 28.98119 8.88548 28.98119H11.60263C11.7449 28.98119 11.8262 29.02155 11.84682 29.10283 11.88716 29.22537 11.86655 29.327 11.78525 29.40858L5.8626 36.7665 11.54196 42.26115C11.60294 42.32243 11.6128 42.41359 11.57184 42.53613 11.5309 42.63745 11.4499 42.68857 11.32796 42.68857H8.51906C8.3765 42.68857 8.23422 42.61682 8.09166 42.47456L2.71864 37.04057V49.46634C2.71864 49.66928 2.61642 49.7712 2.41316 49.7712ZM54.22993 49.7715C54.0267 49.7715 53.92508 49.66957 53.92508 49.46664V29.28604C53.92508 29.0825 54.0267 28.98119 54.22993 28.98119H56.33707C56.5403 28.98119 56.64192 29.08281 56.64192 29.28604V49.46664C56.64192 49.66988 56.5403 49.7715 56.33707 49.7715ZM17.8164 42.96323C16.12683 42.96323 14.49881 42.42345 12.93176 41.34479 12.76888 41.1819 12.7381 41.03992 12.84001 40.91737L13.9387 39.36081C14.02 39.21823 14.153 39.1979 14.33621 39.29984 15.5162 40.11339 16.67647 40.52106 17.8164 40.52106 18.69124 40.52106 19.35805 40.25624 19.81593 39.72723 20.27382 39.1979 20.4726 38.55652 20.41132 37.80362 18.43689 37.60008 16.96071 37.35678 15.98396 37.07135 13.50084 36.35912 12.25958 35.00517 12.25958 33.01073 12.25958 31.74884 12.71777 30.71083 13.63383 29.89667 14.56995 29.10344 15.67969 28.70651 16.9616 28.70651 18.36577 28.70651 19.51556 29.04277 20.41132 29.71434V29.28635C20.41132 29.0825 20.52309 28.98149 20.74695 28.98149H22.85349C23.05673 28.98149 23.15836 29.0825 23.15836 29.28635V37.74295C23.15836 39.71677 22.48735 41.15201 21.14418 42.04776 20.22809 42.65837 19.11894 42.96323 17.8164 42.96323ZM30.73563 42.96323C28.72055 42.96323 27.16399 42.17957 26.06499 40.61252 25.12859 39.3097 24.66054 37.72203 24.66054 35.84953 24.66054 33.8757 25.14891 32.23692 26.12596 30.93468 27.24498 29.44864 28.79199 28.70651 30.7664 28.70651 32.35439 28.70651 33.62582 29.10313 34.58257 29.89667V28.3096C34.58257 25.74518 33.35057 24.46297 30.88837 24.46297 29.8094 24.46297 28.70053 25.03294 27.56119 26.17259 27.5056 26.23137 27.42809 26.26443 27.3472 26.26404 27.24557 26.26404 27.16399 26.23357 27.10301 26.17229L25.66777 24.73764C25.54582 24.55443 25.5557 24.4017 25.69856 24.27975 26.10533 23.93396 26.46191 23.64343 26.76736 23.4097 27.07222 23.17567 27.33673 22.9874 27.56119 22.84483 28.61923 22.25453 29.73825 21.95982 30.91914 21.95982 32.95395 21.95982 34.52667 22.53517 35.63582 23.68439 36.74496 24.83449 37.2997 26.519 37.2997 28.7364V42.3828C37.2997 42.58604 37.19807 42.68767 36.99484 42.68767H34.88771C34.68388 42.68767 34.58257 42.58604 34.58257 42.3828V41.77219C33.54514 42.56633 32.26233 42.96323 30.73593 42.96323ZM45.0883 42.96323C43.07323 42.96323 41.51665 42.17957 40.41765 40.61252 39.48155 39.3097 39.0132 37.72203 39.0132 35.84953 39.0132 33.8757 39.50127 32.23692 40.47862 30.93468 41.59764 29.44864 43.14465 28.70651 45.11908 28.70651 46.70645 28.70651 47.9782 29.10313 48.93523 29.89667V28.3096C48.93523 25.74518 47.70322 24.46297 45.24101 24.46297 44.16206 24.46297 43.05319 25.03294 41.91356 26.17259 41.85797 26.23137 41.78046 26.26443 41.69955 26.26404 41.59795 26.26404 41.51665 26.23357 41.45567 26.17229L40.02103 24.73764C39.89879 24.55443 39.90865 24.4017 40.05093 24.27975 40.4583 23.93396 40.81458 23.64343 41.11974 23.4097 41.42488 23.17567 41.68939 22.9874 41.91385 22.84483 42.97191 22.25453 44.09122 21.95982 45.27242 21.95982 47.30719 21.95982 48.87932 22.53517 49.98909 23.68439 51.09793 24.83449 51.65236 26.519 51.65236 28.7364V42.3828C51.65236 42.58604 51.55074 42.68767 51.3475 42.68767H49.24068C49.03683 42.68767 48.93523 42.58604 48.93523 42.3828V41.77219C47.8969 42.56633 46.61499 42.96323 45.0886 42.96323ZM65.25005 42.96323C63.29625 42.96323 61.70828 42.3326 60.48706 41.07071 59.1639 39.68628 58.50247 37.9973 58.50247 36.00285 58.50247 33.88585 59.17496 32.14577 60.51784 30.78226 61.90166 29.39842 63.63219 28.70651 65.70824 28.70651 67.64111 28.70651 69.34087 29.25586 70.80629 30.35486 70.96918 30.47739 70.96918 30.61908 70.80629 30.78226L69.37105 32.24768C69.2485 32.36993 69.09637 32.36993 68.91286 32.24768 68.0168 31.61644 67.00957 31.30112 65.89055 31.30112 64.62866 31.30112 63.58049 31.65678 62.7463 32.36993 62.01344 33.04181 61.58603 33.8757 61.4641 34.87308H71.38611C71.58905 34.87308 71.69157 34.97499 71.69157 35.17883L71.72147 35.84953C71.82338 37.90524 71.22293 39.61545 69.9207 40.97894 68.6582 42.3018 67.10164 42.96353 65.25005 42.96353ZM65.18848 40.61252C66.16524 40.61252 67.0003 40.29689 67.69223 39.66626 68.42508 39.03561 68.80107 38.25134 68.82199 37.31554H61.4641C61.64731 38.29259 62.08487 39.08643 62.7768 39.69704 63.46811 40.30736 64.2724 40.61252 65.18848 40.61252ZM31.04138 40.30766C32.89328 40.30766 34.07385 39.65579 34.58257 38.35356V33.3162C34.07385 32.01366 32.86249 31.36209 30.94965 31.36209 30.01323 31.36209 29.2499 31.65678 28.65988 32.24768 27.86606 33.00026 27.46944 34.20178 27.46944 35.85011 27.46944 38.82132 28.66019 40.30766 31.04138 40.30766ZM45.39375 40.30766C47.24562 40.30766 48.42682 39.65579 48.93582 38.35356H48.93523V33.3162C48.42621 32.01366 47.21515 31.36209 45.30229 31.36209 44.3662 31.36209 43.60284 31.65678 43.01254 32.24768 42.21902 33.00026 41.8221 34.20178 41.8221 35.85011 41.8221 38.82132 43.01254 40.30766 45.39375 40.30766ZM20.41132 35.36205V32.30896C19.5565 31.45415 18.41628 31.07755 16.99179 31.17947 16.4828 31.21982 16.03537 31.37764 15.64891 31.6523 15.26216 31.92697 15.0377 32.28864 14.97673 32.73636 14.8748 33.53049 15.32283 34.14111 16.32019 34.5682 17.05307 34.8934 18.41628 35.1582 20.41132 35.36205Z" fill="#20beff"/>
</svg>
