<svg xmlns="http://www.w3.org/2000/svg" xmlns:xlink="http://www.w3.org/1999/xlink" xmlns:inkscape="http://www.inkscape.org/namespaces/inkscape" version="1.1" width="67.32" height="79.86" viewBox="0 0 67.32 79.86">
<path transform="matrix(1,0,0,-1,-2.1419678,75.71354)" d="M37.37233 71.73193C36.90906 71.73193 36.43085 71.70801 35.9377 71.66916 23.30688 70.67389 26.65738 57.30186 26.46309 52.8455 26.23595 49.5817 25.56645 47.00833 23.32483 43.81924 20.67972 40.67798 16.96759 35.59996 15.20717 30.30673 14.37627 27.82002 13.98174 25.27354 14.34937 22.86754 14.21309 22.75725 14.10109 22.61987 14.0206 22.46405 13.2435 21.66304 12.67563 20.67075 12.039 19.95642 11.44423 19.36165 10.58942 19.15839 9.65689 18.76088 8.7214 18.3544 7.69025 17.9569 7.07455 16.72847 6.80556 16.16359 6.66806 15.55087 6.68002 14.9292 6.68002 14.33443 6.76073 13.73367 6.8444 13.3272 7.01778 12.13464 7.19112 11.1513 6.96397 10.42802 6.21974 8.39561 6.12709 7.00581 6.64716 5.9926 7.1672 4.99432 8.24617 4.58784 9.45665 4.19632 11.87761 3.59854 15.16531 3.79283 17.74767 2.40302 20.51532 1.01022 23.32483 .40048 25.56645 .99826 27.13858 1.34497 28.46562 2.38507 29.17696 3.8257 30.9314 3.83466 32.85321 4.6297 35.9317 4.82396 38.0209 4.99733 40.63612 4.02594 43.63393 4.2262 43.70865 3.8257 43.82222 3.6344 43.97467 3.23091L43.98361 3.22194C45.15225 .89664 47.3102-.16139 49.61458 .0209 51.91898 .20024 54.3728 1.62292 56.36037 3.92432 58.24632 6.21077 61.39056 7.16422 63.4678 8.41653 64.50792 9.01132 65.34778 9.8183 65.40755 10.96602 65.4763 12.16154 64.8098 13.38995 63.27353 15.07864V15.36856L63.26457 15.37752C62.75647 15.9753 62.51736 16.97655 62.25435 18.14519 62.00029 19.3437 61.71037 20.4944 60.78384 21.2715H60.77487C60.59853 21.43289 60.40724 21.47176 60.21298 21.67499 60.0458 21.79164 59.84874 21.85811 59.6451 21.86627 60.93327 25.686 60.43414 29.48781 59.12802 32.90701 57.53499 37.12126 54.74939 40.79155 52.62732 43.31712 50.24821 46.32089 47.91692 49.16626 47.96474 53.38348 48.04245 59.81546 48.67012 71.71399 37.37233 71.73193ZM38.95341 61.55496H38.99228C39.62889 61.55496 40.17586 61.36964 40.73775 60.96317 41.30563 60.55968 41.72408 59.97089 42.04686 59.37012 42.36069 58.59602 42.51909 57.99825 42.543 57.2062 42.543 57.26598 42.56094 57.32576 42.56094 57.38554V57.07172C42.55435 57.09204 42.55037 57.11316 42.54898 57.13449L42.53703 57.2062C42.53105 56.47983 42.37851 55.7622 42.0887 55.0961 41.94913 54.7214 41.73224 54.38017 41.45207 54.09483 41.3674 54.14265 41.27954 54.1846 41.18907 54.22037 40.87823 54.35486 40.59727 54.41165 40.34024 54.61789 40.12724 54.70276 39.90726 54.76872 39.6827 54.81516 39.83214 54.99448 40.11906 55.21266 40.22966 55.40694 40.38806 55.7895 40.47475 56.19598 40.49266 56.60844V56.66823C40.49945 57.0741 40.43777 57.47829 40.31035 57.86375 40.17586 58.26425 40.00848 58.46152 39.7634 58.85902 39.51233 59.05629 39.26425 59.25357 38.96536 59.25357H38.91756C38.63959 59.25357 38.39153 59.1639 38.13448 58.85902 37.85063 58.58226 37.64014 58.23915 37.52177 57.86076 37.36307 57.48099 37.272 57.0764 37.25278 56.66524V56.60844C37.25874 56.34244 37.27669 56.07344 37.31255 55.81042 36.7357 56.01068 36.00345 56.21391 35.49834 56.41417 35.46814 56.61214 35.45021 56.81178 35.44453 57.01195V57.07172C35.42102 57.86067 35.57425 58.64494 35.89285 59.36714 36.13794 60.02467 36.58627 60.58061 37.17805 60.96019 37.68895 61.34744 38.31232 61.55734 38.95341 61.55794ZM30.10051 61.37862H30.2081C30.6325 61.37862 31.01509 61.23515 31.40065 60.97513 31.837 60.58955 32.1897 60.11435 32.4288 59.58531 32.6978 58.99054 32.84724 58.38979 32.8861 57.59178V57.57982C32.90701 57.17932 32.90402 56.98206 32.88013 56.78477V56.54568C32.79045 56.52475 32.71275 56.49188 32.63205 56.47394 32.17775 56.30957 31.81311 56.07045 31.45743 55.87619 31.49329 56.14517 31.49629 56.41417 31.4664 56.6742V56.71902C31.43054 57.11655 31.34685 57.3168 31.22131 57.71431 31.12817 58.01897 30.9571 58.29395 30.72517 58.51233 30.57632 58.64763 30.37895 58.71666 30.1782 58.70361H30.11545C29.90324 58.68568 29.7269 58.58406 29.55952 58.30908 29.36885 58.07765 29.2449 57.79869 29.20087 57.5021 29.12007 57.1799 29.09685 56.84605 29.13213 56.5158V56.47096C29.16798 56.06746 29.24272 55.87318 29.37123 55.47269 29.50871 55.07219 29.66412 54.87492 29.86739 54.67169 29.89726 54.64478 29.92715 54.61789 29.969 54.59995 29.75978 54.42958 29.6193 54.39073 29.44296 54.19347 29.33109 54.09454 29.19669 54.0248 29.05142 53.99023 28.74069 54.36433 28.46562 54.76663 28.2295 55.19173 27.94696 55.8198 27.78955 56.49696 27.76622 57.18529 27.7167 57.85997 27.7979 58.53793 28.00534 59.18182 28.16992 59.76903 28.45834 60.3143 28.85118 60.78085 29.23375 61.17836 29.62827 61.37862 30.10051 61.37862ZM34.1952 56.27968C35.1875 56.27968 36.38602 56.0854 37.82962 55.08713 38.70535 54.48935 39.39278 54.28313 40.97388 53.68837H40.98283C41.745 53.28188 42.19331 52.89333 42.4115 52.49582V52.88736C42.62848 52.4477 42.64592 51.936 42.45932 51.4826 42.09169 50.55606 40.91708 49.56078 39.2822 48.966V48.96004C38.48119 48.55653 37.78479 47.96474 36.96585 47.57022 36.14093 47.16673 35.20842 46.69748 33.94115 46.7722 33.48595 46.74858 33.03056 46.81674 32.60216 46.97244 32.27109 47.15257 31.9499 47.35014 31.63976 47.56424 31.05693 47.96774 30.55481 48.55653 29.8106 48.95404V48.96898H29.79564C28.60011 49.70424 27.95453 50.49928 27.7453 51.09106 27.5361 51.89207 27.73036 52.49582 28.32214 52.88435 28.99165 53.28786 29.4579 53.69434 29.76576 53.88861 30.07658 54.10977 30.19316 54.19347 30.2918 54.28015H30.29776V54.28911C30.80289 54.89287 31.60089 55.69385 32.80539 56.0854 33.22084 56.193 33.68411 56.27968 34.1982 56.27968ZM42.56393 49.8776C43.63393 45.64243 46.13858 39.49142 47.74954 36.50856 48.60435 34.91252 50.305 31.5501 51.04323 27.47034 51.50949 27.48528 52.02956 27.41653 52.5765 27.27905 54.5073 32.27338 50.94461 37.64133 49.32167 39.13275 48.66412 39.73051 48.62827 40.134 48.95404 40.134 50.71745 38.53798 53.0338 35.43556 53.87366 31.8938 54.2622 30.29478 54.35187 28.59413 53.93643 26.90247 54.13669 26.81877 54.33992 26.72313 54.54915 26.70221 57.6336 25.10617 58.77235 23.89868 58.22539 22.10837V22.2369C58.04607 22.24585 57.86673 22.2369 57.68741 22.2369H57.63959C58.0909 23.63268 57.09563 24.70268 54.45648 25.89522 51.7217 27.09076 49.53687 26.89948 49.16626 24.50542 49.14235 24.37689 49.12741 24.30815 49.11246 24.10193 48.90921 24.03317 48.697 23.94351 48.4878 23.91064 47.20259 23.10963 46.50919 21.9111 46.11765 20.36288 45.7291 18.76985 45.60954 16.9078 45.50494 14.77676V14.7678C45.44516 13.76953 44.99683 12.26317 44.5515 10.73288 40.06825 7.52887 33.85149 6.13606 28.56723 9.7346 28.23557 10.31424 27.83188 10.84955 27.36572 11.32765 27.14296 11.69856 26.86589 12.03412 26.54381 12.32294 27.08775 12.32294 27.55402 12.41261 27.9336 12.5232 28.3634 12.72255 28.69965 13.08022 28.87209 13.52147 29.19489 14.31947 28.87209 15.60468 27.84096 16.99748 26.8098 18.39326 25.05833 19.97136 22.49692 21.54347 20.61395 22.73901 19.54993 24.14375 19.05977 25.71588 18.5666 27.31192 18.63235 28.95877 19.01494 30.6325 19.7472 33.83057 21.62418 36.93895 22.82271 38.89066 23.14252 39.08493 22.93329 38.48717 21.60327 35.97954 20.41968 33.73491 18.196 28.51642 21.23862 24.46059 21.35359 27.41982 22.00894 30.33315 23.1724 33.05646 24.8581 36.87619 28.38193 43.52933 28.65988 48.8016 28.80334 48.69403 29.30847 48.39812 29.52367 48.19788 30.17522 47.80037 30.65942 47.20259 31.28708 46.80807 31.91472 46.20732 32.71275 45.80681 33.90529 45.80681 34.02185 45.79784 34.12946 45.78888 34.23405 45.78888 35.46547 45.78888 36.41591 46.18938 37.21391 46.58989 38.08069 46.99039 38.76811 47.58817 39.42566 47.78542H39.4406C40.83638 48.1889 41.93628 48.98692 42.56094 49.8776ZM49.09453 23.10365C49.20512 21.31035 50.1197 19.38255 51.73067 18.98804 53.48811 18.58752 56.01665 19.9833 57.08366 21.27449L57.71431 21.30438C58.65579 21.3253 59.43886 21.27449 60.24585 20.50337L60.2548 20.4944C60.8765 19.89963 61.16641 18.91032 61.42345 17.87617 61.6775 16.68065 61.88373 15.54489 62.64589 14.6901 64.09845 13.11497 64.57368 11.98221 64.54677 11.28282L64.55574 11.30374V11.24995L64.54677 11.28581C64.50194 10.50275 63.99385 10.10223 63.05835 9.50746 61.17538 8.30894 57.83984 7.37941 55.71478 4.81499 53.86769 2.61223 51.62009 1.40773 49.62953 1.2553 47.64494 1.0969 45.93234 1.85307 44.92511 3.93927L44.91016 3.94824C44.2825 5.14377 44.5515 7.01178 45.07753 8.99936 45.60358 10.9959 46.35675 13.01636 46.46136 14.66917 46.57195 16.80319 46.68852 18.65927 47.04419 20.09091 47.40285 21.48073 47.96474 22.47302 48.96004 23.03192L49.09453 23.09769ZM16.77332 22.9572H16.80319C16.9616 22.9572 17.11702 22.94226 17.27245 22.91536 18.39624 22.75098 19.38255 21.92007 20.33002 20.66776L23.04985 15.69435 23.05882 15.68538C23.7851 14.09233 25.3124 12.50526 26.61255 10.79265 27.9097 9.00534 28.91394 7.4123 28.7914 6.10019V6.08226C28.62103 3.85857 27.35677 2.65108 25.42897 2.21472 23.50117 1.81122 20.88594 2.20874 18.27072 3.60153 15.37752 5.20355 11.94037 5.0033 9.73163 5.40082 8.62874 5.59807 7.90845 5.99857 7.5707 6.59634 7.24193 7.1941 7.23296 8.39561 7.93832 10.27261V10.28456L7.9443 10.29352C8.29399 11.2918 8.03397 12.54112 7.86362 13.63504 7.69922 14.83357 7.61552 15.7571 7.99213 16.44453 8.47034 17.44281 9.1757 17.64006 10.05441 18.03758 10.93314 18.44107 11.96727 18.64133 12.7892 19.44234H12.79518V19.4483C13.5603 20.24931 14.1252 21.2446 14.79172 21.95296 15.3596 22.55371 15.92747 22.9572 16.77332 22.9572ZM38.17035 50.07785C36.87021 49.4771 35.3459 48.47882 33.72296 48.47882 32.10303 48.47882 30.82379 49.27684 29.89726 49.87161 29.43698 50.27213 29.0604 50.67262 28.78242 50.87288 28.29225 51.27338 28.35204 51.86815 28.56126 51.86815 28.88704 51.82034 28.94681 51.46765 29.15604 51.2704 29.44296 51.07314 29.79863 50.67262 30.23201 50.27512 31.10475 49.67735 32.26442 48.87932 33.71997 48.87932 35.16956 48.87932 36.86722 49.67735 37.89836 50.27213 38.48119 50.67561 39.2284 51.2704 39.83511 51.6679 40.30138 52.07439 40.28046 52.46593 40.669 52.46593 41.05157 52.4181 40.77063 52.06541 40.22966 51.47363 39.56673 50.9723 38.8784 50.50536 38.16736 50.07486ZM34.93643 54.80917V54.87492C34.9185 54.9347 34.9753 55.00044 35.02312 55.02435 35.2443 55.15288 35.5611 55.10507 35.80022 55.0124 35.9885 55.0124 36.27841 54.81215 36.24854 54.60892 36.23059 54.46246 35.99448 54.41165 35.84505 54.41165 35.68065 54.41165 35.57007 54.54018 35.42361 54.6149 35.26819 54.66869 34.98724 54.63881 34.93643 54.80917ZM33.28958 54.80917C33.22981 54.63582 32.95184 54.66272 32.79344 54.6119 32.65295 54.53719 32.5364 54.40866 32.375 54.40866 32.22556 54.40866 31.98647 54.46844 31.96852 54.6119 31.93863 54.80917 32.23155 55.00941 32.41684 55.00941 32.65596 55.10207 32.9668 55.1499 33.19096 55.02435 33.24774 54.99747 33.29855 54.9347 33.28062 54.87492V54.81516H33.28958Z" fill="#fcc624"/>
</svg>
