<svg xmlns="http://www.w3.org/2000/svg" xmlns:xlink="http://www.w3.org/1999/xlink" xmlns:inkscape="http://www.inkscape.org/namespaces/inkscape" version="1.1" width="80.06" height="79.7" viewBox="0 0 80.06 79.7">
<path transform="matrix(1,0,0,-1,4.1643679,75.714939)" d="M42.59084 71.19394 45.28078 70.59618 47.46262 69.81908 49.22603 68.92242 50.571 67.966 51.5872 66.9498 52.33441 65.9336 52.81262 64.94728 53.11151 64.05063 53.23106 63.27353 53.29085 62.67577 53.26096 62.28723V46.32687L53.11151 44.44391 52.72296 42.80005 52.0953 41.42519 51.3182 40.28943 50.42157 39.36288 49.43524 38.61568 48.38916 38.0478 47.34308 37.62938 46.35675 37.33049 45.46011 37.12126 44.68301 37.00171 44.05536 36.94194H26.21204L24.14975 36.7925 22.38634 36.37405 20.89192 35.71652 19.6665 34.90953 18.68019 33.95311 17.8732 32.90701 17.27544 31.83104 16.8271 30.72517 16.52823 29.67908 16.31902 28.72266 16.19945 27.91568 16.13968 27.28801V18.1422H9.47458L8.84694 18.23186 8.01006 18.44107 7.05363 18.79973 6.00754 19.33772 4.93156 20.11482 3.85558 21.19081 2.8095 22.56566 1.85307 24.32907 1.0162 26.51093 .38853 29.1411-.02988 32.27936-.17932 35.95563 0 39.602 .4782 42.71037 1.19553 45.31065 2.15195 47.43274 3.22794 49.13637 4.42346 50.45145 5.67877 51.43777 6.93408 52.15509 8.12961 52.6333 9.2056 52.93219 10.16202 53.08162 10.87933 53.11151H11.35754L11.53688 53.08162H35.92574V55.56236H18.47096L18.44107 63.78165 18.3813 64.88751 18.53075 65.9037 18.85951 66.83025 19.36761 67.66711 20.11482 68.44421 21.04135 69.13164 22.17711 69.72942 23.4922 70.2674 25.01651 70.71571 26.75003 71.07439 28.66289 71.37326 30.78494 71.5526 33.08635 71.67215 35.59695 71.73193 39.39278 71.58249ZM23.7612 65.27606 23.07376 64.28973 22.83466 63.06432 23.07376 61.8389 23.7612 60.8227 24.74751 60.16515 25.97293 59.89615 27.19835 60.16515 28.18466 60.8227 28.87209 61.8389 29.1112 63.06432 28.87209 64.28973 28.18466 65.27606 27.19835 65.9336 25.97293 66.20259 24.74751 65.9336ZM62.88498 53.47017 63.72186 53.29085 64.67828 52.93219 65.72438 52.3942 66.80035 51.5872 67.87634 50.5411 68.92242 49.13637 69.87885 47.37296 70.71571 45.19112 71.34338 42.56094 71.76181 39.45256 71.91125 35.77629 71.73193 32.10004 71.25372 28.99165 70.53639 26.42126 69.57997 24.29918 68.50398 22.59555 67.30846 21.25058 66.05315 20.26427 64.79784 19.54694 63.60231 19.06873 62.52632 18.79973 61.5699 18.6503 60.85258 18.59052 60.37437 18.6204H35.80618V16.16956H53.26096L53.29085 7.9204 53.35062 6.8444 53.20117 5.82822 52.8724 4.90167 52.3643 4.03491 51.6171 3.2877 50.69057 2.57039 49.55481 1.97261 48.23972 1.46452 46.71541 1.0162 44.98189 .62766 43.06903 .35866 40.94698 .14943 38.64557 .02988 36.13496 0 32.33914 .11954 29.1411 .53798 26.45114 1.13574 24.2693 1.88295 22.50589 2.7796 21.16092 3.76591 20.14471 4.78212 19.3975 5.79832 18.9193 6.78464 18.6204 7.68129 18.50085 8.4285 18.44107 9.02626 18.47096 9.41481V25.37517L18.6204 27.28801 19.00896 28.90198 19.63661 30.27684 20.41371 31.4126 21.31035 32.36903 22.29668 33.08635 23.34276 33.68411 24.38884 34.10254 25.37517 34.40143 26.2718 34.58076 27.0489 34.70032 27.67656 34.76009 28.06511 34.78998H45.51988L47.58217 34.93942 49.34558 35.35786 50.84 35.9855 52.06541 36.82239 53.05174 37.77881 53.85872 38.8249 54.45648 39.90088 54.90482 40.97687 55.20369 42.02295 55.4129 42.97937 55.53247 43.81624 55.59224 44.44391V53.58972H61.8389L62.25734 53.55983ZM43.54726 10.87933 42.85983 9.89302 42.62071 8.6676 42.85983 7.44218 43.54726 6.45586 44.53357 5.76843 45.75899 5.52933 46.9844 5.76843 47.97072 6.45586 48.65816 7.44218 48.89726 8.6676 48.65816 9.89302 47.97072 10.87933 46.9844 11.56677 45.75899 11.80588 44.53357 11.56677Z" fill="#3776ab"/>
</svg>
