<svg xmlns="http://www.w3.org/2000/svg" xmlns:xlink="http://www.w3.org/1999/xlink" xmlns:inkscape="http://www.inkscape.org/namespaces/inkscape" version="1.1" width="64.15" height="79.74" viewBox="0 0 64.15 79.74">
<path transform="matrix(1,0,0,-1,-3.7887879,75.7354)" d="M41.2339 71.73193C35.73506 71.74817 30.45549 69.57718 26.55875 65.69746L16.2921 55.42786 26.07455 45.65437 36.33221 55.91205C37.6177 57.2357 39.38431 57.9826 41.22942 57.9826 43.07452 57.9826 44.84111 57.2357 46.12662 55.91205 47.45146 54.62843 48.19937 52.86255 48.19937 51.01784 48.19937 49.17313 47.45146 47.40723 46.12662 46.12363L35.86597 35.86296 45.6484 26.08052 55.90906 36.34717C63.95499 44.3931 63.95499 57.64856 55.90906 65.69746 52.01411 69.57997 46.73335 71.75146 41.2339 71.73193M26.08052 45.6454 15.81987 35.38177C7.77394 27.33284 7.77394 14.08336 15.81987 6.03445 19.71481 2.15195 24.99559-.01953 30.49503 0 35.99529-.01624 41.27614 2.15584 45.17317 6.03743L55.43085 16.2951 45.65437 26.07455 35.39372 15.81389C34.10823 14.49025 32.34163 13.74333 30.49654 13.74333 28.65141 13.74333 26.88483 14.49025 25.59933 15.81389 24.27348 17.0976 23.52509 18.86418 23.52509 20.7096 23.52509 22.55501 24.27348 24.32161 25.59933 25.6053L35.86597 35.86597Z" fill="#7fc8ff"/>
</svg>
