<svg xmlns="http://www.w3.org/2000/svg" xmlns:xlink="http://www.w3.org/1999/xlink" xmlns:inkscape="http://www.inkscape.org/namespaces/inkscape" version="1.1" width="79.7" height="59.69" viewBox="0 0 79.7 59.69">
<path transform="matrix(1,0,0,-1,3.9850465,65.71142)" d="M71.73193 46.00108C69.19739 44.39908 67.43997 43.52036 65.31789 42.28 52.90828 34.781 40.95892 26.45413 31.70251 15.4373L27.25513 10.0066 13.60216 31.72943C16.65376 29.29651 24.25435 22.47002 27.35976 20.97261L37.39026 28.5224C44.37216 33.43605 64.12834 44.14204 71.73193 46.00108ZM24.04813 26.29872C25.08226 25.4708 26.1164 24.69371 26.9443 24.07501 29.2188 35.03806 27.30595 46.829 21.30736 57.06873 31.39168 57.22415 41.42519 57.32875 51.50949 57.48418 53.77194 52.49481 55.08743 47.12837 55.38899 41.65831 56.26772 42.12457 57.14644 42.53703 58.02814 42.95248 57.7173 48.53561 56.1123 54.63881 53.0607 61.67151 39.3061 61.72531 25.59933 61.72531 11.84474 61.72531 20.7903 51.12395 24.87602 38.29587 24.04813 26.29872ZM22.18608 27.7453C22.4461 27.48827 22.75694 27.28204 23.01399 27.07281 22.60153 37.26175 18.77284 47.6569 11.5847 56.60545H5.17067C14.43005 48.07234 20.067 37.77881 22.18608 27.7453ZM19.96239 29.71196C20.27322 29.45192 20.58406 29.19489 20.94572 28.88405 18.25577 36.43384 13.49756 43.882 6.77567 50.39766H0C8.63771 44.19284 15.30878 37.00471 19.96239 29.71196Z" fill="#1857b6"/>
</svg>
