<svg xmlns="http://www.w3.org/2000/svg" xmlns:xlink="http://www.w3.org/1999/xlink" xmlns:inkscape="http://www.inkscape.org/namespaces/inkscape" version="1.1" width="73.91" height="79.95" viewBox="0 0 73.91 79.95">
<path transform="matrix(1,0,0,-1,.6062317,75.72136)" d="M41.3953 71.73193C38.08965 71.7398 34.9169 70.4309 32.57825 68.09451L4.35173 39.871C3.37886 38.89664 3.37886 37.31853 4.35173 36.34416 5.32608 35.3713 6.90419 35.3713 7.87856 36.34416L36.09908 64.56471C37.49707 65.97844 39.40263 66.77396 41.39081 66.77396 43.37898 66.77396 45.28456 65.97844 46.68253 64.56471 48.09625 63.16673 48.89177 61.26115 48.89177 59.273 48.89177 57.28482 48.09625 55.37923 46.68253 53.98126L25.67406 32.9668 25.37517 32.66791C24.4023 31.69354 24.4023 30.11545 25.37517 29.1411 26.34952 28.16823 27.92763 28.16823 28.90198 29.1411L29.20087 29.434 50.21234 50.45743C51.61041 51.87204 53.5166 52.66817 55.50557 52.66817 57.49452 52.66817 59.40071 51.87204 60.79878 50.45743L60.94524 50.30798C62.35805 48.91011 63.153 47.00522 63.153 45.01776 63.153 43.03029 62.35805 41.1254 60.94524 39.72754L35.42062 14.20291C33.16626 11.92105 33.16626 8.25056 35.42062 5.96869L40.66003 .72926C41.6344-.24359 43.2125-.24359 44.18687 .72926 45.15973 1.70363 45.15973 3.28174 44.18687 4.25609L38.94745 9.49551C38.78136 9.64624 38.68663 9.86005 38.68663 10.0843 38.68663 10.30858 38.78136 10.52237 38.94745 10.67311L64.47206 36.19771C69.32013 41.07608 69.32013 48.95345 64.47206 53.83182L64.32262 53.98126C61.98445 56.31873 58.8117 57.62874 55.50557 57.62166 54.9078 57.62166 54.30704 57.56187 53.71227 57.47818 54.28772 61.37054 52.99136 65.30614 50.21533 68.09451 47.87598 70.43158 44.70203 71.74059 41.3953 71.73193M41.3953 61.77016C40.73396 61.76787 40.10033 61.50475 39.63188 61.0379L18.7549 40.16988C13.90453 35.29012 13.90453 27.40956 18.7549 22.5298 23.63467 17.67943 31.51521 17.67943 36.39499 22.5298L57.26598 43.39781C58.23885 44.37216 58.23885 45.95027 57.26598 46.92464 56.29163 47.8975 54.71353 47.8975 53.73917 46.92464L32.86218 26.05063C31.46431 24.63782 29.55943 23.8429 27.57196 23.8429 25.58449 23.8429 23.6796 24.63782 22.28172 26.05063 20.8689 27.44852 20.07397 29.35341 20.07397 31.34087 20.07397 33.32834 20.8689 35.23322 22.28172 36.6311L43.15273 57.50809C44.1256 58.48244 44.1256 60.06055 43.15273 61.0349 42.68428 61.50175 42.05064 61.76488 41.38933 61.76717"/>
</svg>
