<svg xmlns="http://www.w3.org/2000/svg" xmlns:xlink="http://www.w3.org/1999/xlink" xmlns:inkscape="http://www.inkscape.org/namespaces/inkscape" version="1.1" width="63.2" height="79.75" viewBox="0 0 63.2 79.75">
<path transform="matrix(1,0,0,-1,-4.284027,75.71184)" d="M11.48398 71.73193C10.28487 71.73154 9.2012 71.0172 8.72827 69.91531 8.26918 68.81332 8.59737 68.03983 9.6064 66.59383L30.2846 41.6081 27.22914 38.30305C26.10912 37.10533 26.113 35.24329 27.23811 34.05025L30.91197 30.12442 14.65543 10.86319C13.81764 9.96954 13.29909 8.40338 13.76744 7.28078 14.24446 6.12192 15.37901 5.37022 16.63223 5.38287 17.43503 5.4026 18.18842 5.7749 18.69185 6.40057L35.97624 24.71016 58.36319 .78426C58.893 .23193 59.6431-.05309 60.40605 .00807 61.5727 .02759 62.6107 .75348 63.02934 1.8426 63.50069 2.96939 62.97853 4.08482 62.11476 5.25197L41.03813 30.18419 44.21587 33.56157C45.26045 34.66116 45.27211 36.38283 44.24246 37.49637L13.84904 70.34541C13.84904 70.34541 12.7333 71.70084 11.55362 71.72923ZM11.48398 70.91898H11.5336C12.18484 70.90341 12.99034 70.1075 13.22049 69.83133L13.23543 69.81339 13.25098 69.79695 43.64438 36.94821C44.38203 36.1479 44.37257 34.91272 43.62288 34.12376L40.43498 30.73743 35.95712 36.03482 10.25497 67.08878C9.27283 68.4995 9.20291 68.93677 9.48027 69.60239 9.82637 70.4009 10.61363 70.91777 11.48398 70.91777ZM54.34679 66.2262C53.6219 66.26695 52.91266 66.00533 52.38791 65.50351L35.36295 47.09709 40.4272 41.62186 56.29462 61.0905C57.26628 62.38614 57.72627 63.06401 57.26509 64.1666 56.77014 65.35765 55.63518 66.15865 54.34709 66.2259ZM31.4652 29.5165 35.40628 25.29178 18.11171 6.97174C17.76042 6.50209 17.21565 6.21646 16.62955 6.19464 15.70619 6.18188 14.86913 6.73552 14.51944 7.59013 14.18498 8.39172 14.62672 9.64166 15.24931 10.30489L15.26454 10.32132 15.2786 10.33777Z" fill="#b31b1b"/>
</svg>
