<svg xmlns="http://www.w3.org/2000/svg" xmlns:xlink="http://www.w3.org/1999/xlink" xmlns:inkscape="http://www.inkscape.org/namespaces/inkscape" version="1.1" width="79.75" height="59.45" viewBox="0 0 79.75 59.45">
<path transform="matrix(1,0,0,-1,4.0374529,65.58501)" d="M41.79282 38.62167H48.12614C48.432 38.62167 48.68037 38.86874 48.68207 39.17459V44.81451C48.68207 45.12158 48.4332 45.37044 48.12614 45.37044H41.79282C41.64616 45.37044 41.50548 45.31216 41.40187 45.20844 41.29816 45.10484 41.23987 44.96416 41.23987 44.8175V39.17459C41.23987 38.86974 41.48796 38.62167 41.79282 38.62167M32.9638 54.85101H39.29414C39.60121 54.85101 39.85007 55.09988 39.85007 55.40694V61.04985C39.84837 61.35571 39.6 61.60277 39.29414 61.60277H32.9638C32.81715 61.60277 32.67648 61.54451 32.57286 61.44078 32.46915 61.33717 32.41087 61.1965 32.41087 61.04985V55.40694C32.41087 55.10207 32.65596 54.854 32.9638 54.854M32.9638 46.73633H39.29414C39.60051 46.73793 39.84848 46.9859 39.85007 47.29225V52.93219C39.84837 53.23804 39.6 53.4851 39.29414 53.4851H32.9638C32.81715 53.4851 32.67648 53.42683 32.57286 53.32312 32.46915 53.2195 32.41087 53.07884 32.41087 52.93219V47.29225C32.41087 46.9874 32.65596 46.73932 32.9638 46.73633M24.20653 46.73633H30.54285C30.84752 46.73962 31.0928 46.9876 31.0928 47.29225V52.93219C31.0928 53.07884 31.03452 53.2195 30.9308 53.32312 30.8272 53.42683 30.68651 53.4851 30.53987 53.4851H24.20952C23.90416 53.4851 23.65659 53.23753 23.65659 52.93219V47.29225C23.65659 46.9874 23.90466 46.73932 24.20952 46.73633M15.35063 46.73633H21.68396C21.98982 46.73804 22.2369 46.9864 22.2369 47.29225V52.93219C22.2369 53.23753 21.98932 53.4851 21.68396 53.4851H15.35063C15.04477 53.4851 14.7964 53.23804 14.79471 52.93219V47.29225C14.79471 46.9874 15.04578 46.73932 15.35063 46.73633M32.9638 38.62167H39.29414C39.6 38.62167 39.84837 38.86874 39.85007 39.17459V44.81451C39.85007 45.12158 39.60121 45.37044 39.29414 45.37044H32.9638C32.81715 45.37044 32.67648 45.31216 32.57286 45.20844 32.46915 45.10484 32.41087 44.96416 32.41087 44.8175V39.17459C32.41087 38.86974 32.65596 38.62167 32.9638 38.62167M24.20653 38.62167H30.54285C30.84702 38.62335 31.0928 38.87033 31.0928 39.17459V44.81451C31.09358 44.96117 31.0361 45.10214 30.933 45.20636 30.82979 45.31065 30.6895 45.36964 30.54285 45.37044H24.20653C23.90237 45.36874 23.65659 45.12178 23.65659 44.8175V39.17459C23.65659 38.86974 23.90466 38.62167 24.20952 38.62167M15.35063 38.62167H21.68396C21.83061 38.62167 21.97128 38.67993 22.07489 38.78366 22.17862 38.88727 22.2369 39.02794 22.2369 39.17459V44.81451C22.23769 44.96117 22.1802 45.10214 22.0771 45.20636 21.97388 45.31065 21.8336 45.36964 21.68695 45.37044H15.35063C15.04356 45.37044 14.79471 45.12158 14.79471 44.81451V39.17459C14.79471 38.86974 15.04578 38.62167 15.35063 38.62167M6.62323 38.62167H12.95956C13.26372 38.62335 13.5095 38.87033 13.5095 39.17459V44.81451C13.51031 44.96117 13.45282 45.10214 13.3497 45.20636 13.24649 45.31065 13.10622 45.36964 12.95956 45.37044H6.62323C6.31908 45.36874 6.07329 45.12178 6.07329 44.8175V39.17459C6.07329 38.86974 6.31837 38.62167 6.62624 38.62167M71.02357 42.1724C70.8293 42.32483 69.01508 43.6967 65.1834 43.6967 64.17317 43.6937 63.16295 43.60704 62.16469 43.43666 61.42345 48.51768 57.22415 50.9984 57.03584 51.106L56.00769 51.70078 55.33221 50.72343C54.48338 49.41432 53.86769 47.96774 53.50305 46.4494 52.81561 43.55025 53.23405 40.82443 54.70755 38.49612 52.9292 37.50383 50.07486 37.26175 49.49503 37.24083H2.24461C1.00961 37.23923 .00797 36.24016 .00299 35.00517-.0524 30.86615 .64857 26.75183 2.07124 22.86455 3.70016 18.5965 6.12111 15.45224 9.27434 13.52744 12.80115 11.36652 18.5397 10.12915 25.04042 10.12915 27.97842 10.12018 30.90749 10.38618 33.79768 10.92416 37.81119 11.6615 41.67325 13.06467 45.224 15.07565 48.15303 16.77031 50.78322 18.92526 53.02484 21.4598 56.76686 25.69797 58.99652 30.41733 60.65532 34.61066H61.31586C65.41652 34.61066 67.93611 36.25151 69.32593 37.62637 70.24947 38.5021 70.96977 39.56912 71.43901 40.7527L71.73193 41.61348Z" fill="#2496ed"/>
</svg>
