<svg xmlns="http://www.w3.org/2000/svg" xmlns:xlink="http://www.w3.org/1999/xlink" xmlns:inkscape="http://www.inkscape.org/namespaces/inkscape" version="1.1" width="80.03" height="79.7" viewBox="0 0 80.03 79.7">
<path transform="matrix(1,0,0,-1,4.3161165,75.714939)" d="M7.4123 71.73193C4.85376 71.73193 2.7796 69.65778 2.7796 67.09924 2.7796 64.54071 4.85376 62.46655 7.4123 62.46655 9.97084 62.46655 12.04498 64.54071 12.04498 67.09924 12.04498 69.65778 9.97084 71.73193 7.4123 71.73193ZM64.31963 71.73193C61.7602 71.73193 59.68544 69.65718 59.68544 67.09773 59.68544 64.5383 61.7602 62.46356 64.31963 62.46356 66.87906 62.46356 68.95381 64.5383 68.95381 67.09773 68.95381 69.65718 66.87906 71.73193 64.31963 71.73193ZM35.86597 64.87256C34.21085 64.87256 32.68146 63.98956 31.85396 62.55621 31.02635 61.12288 31.02635 59.35687 31.85396 57.92352 32.68146 56.49017 34.21085 55.6072 35.86597 55.6072 38.4245 55.6072 40.49864 57.68134 40.49864 60.23987 40.49864 62.7984 38.4245 64.87256 35.86597 64.87256ZM7.4123 55.97482C4.7641 55.97482 2.31714 54.562 .99307 52.26866-.33105 49.97533-.33105 47.14969 .99307 44.85637 2.31714 42.56303 4.7641 41.1502 7.4123 41.1502 11.506 41.1502 14.8246 44.46881 14.8246 48.56252 14.8246 52.6562 11.506 55.97482 7.4123 55.97482ZM64.31963 55.97482C61.67142 55.97482 59.22447 54.562 57.90042 52.26866 56.57626 49.97533 56.57626 47.14969 57.90042 44.85637 59.22447 42.56303 61.67142 41.1502 64.31963 41.1502 68.41333 41.1502 71.73193 44.46881 71.73193 48.56252 71.73193 52.6562 68.41333 55.97482 64.31963 55.97482ZM35.86597 46.33882C34.21085 46.33882 32.68146 45.45583 31.85396 44.02248 31.02635 42.58914 31.02635 40.82312 31.85396 39.38979 32.68146 37.95645 34.21085 37.07346 35.86597 37.07346 38.4245 37.07346 40.49864 39.1476 40.49864 41.70613 40.49864 44.26468 38.4245 46.33882 35.86597 46.33882ZM7.4123 34.66145C5.75717 34.66145 4.2278 33.77846 3.40028 32.34512 2.57268 30.91177 2.57268 29.14577 3.40028 27.71242 4.2278 26.27908 5.75717 25.39609 7.4123 25.39609 9.97084 25.39609 12.04498 27.47025 12.04498 30.02878 12.04498 32.58731 9.97084 34.66145 7.4123 34.66145ZM64.31963 34.66145C61.7594 34.66145 59.68394 32.58601 59.68394 30.02579 59.68394 27.46556 61.7594 25.3901 64.31963 25.3901 66.87987 25.3901 68.9553 27.46556 68.9553 30.02579 68.9553 32.58601 66.87987 34.66145 64.31963 34.66145ZM35.86597 30.5847C31.77057 30.5847 28.45068 27.2648 28.45068 23.1694 28.45068 19.074 31.77057 15.75412 35.86597 15.75412 39.96135 15.75412 43.28123 19.074 43.28123 23.1694 43.28123 27.2648 39.96135 30.5847 35.86597 30.5847ZM7.4123 18.90733C3.3169 18.90654-.00229 15.58594-.00148 11.49054-.00069 7.39516 3.31989 4.07596 7.41527 4.07675 11.51067 4.07675 14.83057 7.39665 14.83057 11.49205 14.83057 15.58745 11.51067 18.90733 7.41527 18.90733ZM64.31963 16.12773C61.7594 16.12773 59.68394 14.05228 59.68394 11.49205 59.68394 8.93181 61.7594 6.85637 64.31963 6.85637 66.87906 6.85637 68.95381 8.9311 68.95381 11.49054 68.95381 14.04997 66.87906 16.12473 64.31963 16.12473ZM35.86597 9.26537C33.30742 9.26537 31.23328 7.19121 31.23328 4.63268 31.23328 2.07414 33.30742 0 35.86597 0 38.4245 0 40.49864 2.07414 40.49864 4.63268 40.49864 7.19121 38.4245 9.26537 35.86597 9.26537Z" fill="#ffbe00"/>
</svg>
