<svg xmlns="http://www.w3.org/2000/svg" xmlns:xlink="http://www.w3.org/1999/xlink" xmlns:inkscape="http://www.inkscape.org/namespaces/inkscape" version="1.1" width="79.86" height="79" viewBox="0 0 79.86 79">
<path transform="matrix(1,0,0,-1,4.0620577,75.36463)" d="M71.48984 28.25938 62.21848 44.32436 66.61205 51.92793C66.91801 52.45029 66.91801 53.09726 66.61205 53.61961L61.73131 62.078C61.42743 62.59946 60.87032 62.92125 60.26677 62.92384H41.7151L37.32152 70.53043C37.01834 71.05307 36.46114 71.37596 35.857 71.37924H26.09846C25.49263 71.38223 24.93251 71.05756 24.63393 70.53043L15.3596 54.47144H6.57243C5.9666 54.47441 5.40648 54.14973 5.10791 53.6226L.23013 45.1702C-.07701 44.64705-.07701 43.99867 .23013 43.47552L9.50447 27.40756 5.1109 19.801C4.80495 19.27864 4.80495 18.63165 5.1109 18.10931L9.99464 9.65092C10.29851 9.12949 10.85562 8.80768 11.45917 8.80508H30.00487L34.39844 1.19852C34.70161 .67587 35.25882 .35297 35.86296 .34969H45.6245C46.22864 .35297 46.78584 .67587 47.08902 1.19852L56.36635 17.26347H65.15352C65.75706 17.26607 66.31416 17.58786 66.61804 18.10931L71.50179 26.56172C71.81293 27.08607 71.80835 27.73953 71.48984 28.25938M26.10146 69.6816 30.9852 61.22917 26.10146 52.77676H65.1565L60.26677 44.32436H22.19205L16.8271 53.61961ZM30.00487 10.49976 11.45917 10.50574 16.34293 18.96413H26.10146L6.5784 52.77078H16.34293C22.68323 41.77788 29.02652 30.78693 35.3728 19.798ZM60.26378 27.41653 55.38303 35.86597 35.85999 2.04733 30.97623 10.50574C37.33946 21.4837 43.67876 32.47664 50.02405 43.46655H60.75993L70.03128 27.40459Z" fill="#6950ef"/>
</svg>
