<svg xmlns="http://www.w3.org/2000/svg" xmlns:xlink="http://www.w3.org/1999/xlink" xmlns:inkscape="http://www.inkscape.org/namespaces/inkscape" version="1.1" width="79.7" height="79.71" viewBox="0 0 79.7 79.71">
<path transform="matrix(1,0,0,-1,3.986847,75.72165)" d="M39.1238 1.34795C38.26031 .48279 37.08829-.00328 35.86597-.00328 34.64363-.00328 33.4716 .48279 32.60812 1.34795L1.34795 32.61113C.48378 33.47449-.00179 34.64592-.00179 35.86745-.00179 37.08899 .48378 38.2604 1.34795 39.1238L22.84064 60.61348 31.00911 52.445C30.00117 49.73074 31.25787 46.69856 33.89034 45.49298V25.58737C31.52808 24.50531 30.23859 21.92386 30.79231 19.38525 31.34604 16.84665 33.59344 15.0367 36.19174 15.0367 38.79002 15.0367 41.03743 16.84665 41.59116 19.38525 42.1449 21.92386 40.85542 24.50531 38.49313 25.58737V44.96097L45.98912 37.46498C45.08391 35.0282 45.99829 32.28992 48.18611 30.88597 50.37384 29.48201 53.24411 29.79155 55.08224 31.62968 56.92038 33.46782 57.22992 36.3381 55.82597 38.52582 54.42201 40.71364 51.68376 41.62802 49.24695 40.72281L41.37437 48.59538C42.12457 50.62132 41.62604 52.89871 40.09804 54.426 38.57014 55.9533 36.29257 56.45084 34.26694 55.69984L26.09248 63.8713 32.60812 70.38397C33.47151 71.24814 34.64293 71.73372 35.86447 71.73372 37.086 71.73372 38.25743 71.24814 39.12079 70.38397L70.38097 39.12079C71.24515 38.25743 71.73073 37.086 71.73073 35.86447 71.73073 34.64293 71.24515 33.47151 70.38097 32.60812Z" fill="#f03c2e"/>
</svg>
