<svg xmlns="http://www.w3.org/2000/svg" xmlns:xlink="http://www.w3.org/1999/xlink" xmlns:inkscape="http://www.inkscape.org/namespaces/inkscape" version="1.1" width="81.19" height="49.68" viewBox="0 0 81.19 49.68">
<path transform="matrix(1,0,0,-1,5.470482,59.270044)" d="M46.62874 55.20369C40.92007 55.09908 34.73021 52.48386 29.80162 47.55228 21.04434 38.79501 23.57588 22.05756 26.54977 19.08368 28.95578 16.68065 46.26112 13.57527 55.02138 22.33553 55.6315 22.94983 56.21391 23.59114 56.76686 24.25735 56.89537 25.13008 57.37956 26.22997 58.2284 27.56299 57.72346 27.30635 57.1822 27.129 56.6234 27.03696 56.193 26.24492 55.51753 25.3931 54.60295 24.4815 53.54489 23.48024 52.78871 22.82568 52.33142 22.52083 51.95074 22.24327 51.49606 22.08516 51.02531 22.06653 49.97922 22.06653 49.48904 22.98709 49.54881 24.82822 48.89128 23.88374 48.27858 23.18735 47.71965 22.73602 47.23935 22.31848 46.62834 22.08167 45.99211 22.06653 45.41228 22.06653 44.91614 22.33553 44.50966 22.88248 44.18547 23.32701 43.98622 23.85027 43.93282 24.39781 43.27956 23.7348 42.55138 23.15009 41.76292 22.65533 41.09341 22.2608 40.35817 22.06653 39.5512 22.06653 38.65454 22.06653 37.92825 22.35345 37.37831 22.9273 36.96883 23.35901 36.70084 23.90536 36.61017 24.49347V24.4815C35.71353 23.65659 34.92447 23.04686 34.24901 22.65533 33.66618 22.29019 32.99667 22.08694 32.30925 22.06653 31.64104 22.04909 31.00552 22.35515 30.60263 22.88846 30.16925 23.43541 29.95107 24.17366 29.95107 25.0972 29.95107 26.48401 30.25293 28.14581 30.85368 30.08855 31.45445 32.0313 32.18372 33.82458 33.04451 35.45947L35.5611 36.392C35.61868 36.4136 35.67905 36.42676 35.74042 36.43085 35.92873 36.43085 36.08713 36.29037 36.20967 36.01242 36.32922 35.72847 36.392 35.35187 36.392 34.87666 36.392 33.5287 36.08116 32.22258 35.45947 30.96129 34.84079 29.70001 33.86942 28.35204 32.54836 26.92038 32.49455 26.23296 32.46767 25.76071 32.46767 25.50368 32.46767 24.92685 32.57526 24.47253 32.78447 24.13481 32.99667 23.79706 33.27762 23.62968 33.62733 23.62968 34.03749 23.64603 34.43411 23.78102 34.76906 24.01823 35.16359 24.2693 35.76433 24.79533 36.56833 25.58139 36.65202 26.83072 37.12726 27.96648 38.00896 28.99463 38.97733 30.13039 40.05629 30.69528 41.2369 30.69528 41.85258 30.69528 42.34276 30.53387 42.71336 30.21707 43.0795 29.90843 43.28424 29.44934 43.26929 28.97072 43.26929 27.60184 41.81673 26.49298 38.90858 25.64117 39.1716 24.35597 39.86502 23.71039 40.97984 23.71039 41.4194 23.71118 41.8504 23.83214 42.2262 24.06007 42.61174 24.28723 43.18561 24.78636 43.94476 25.54553 44.0404 26.29872 44.29745 27.02501 44.71887 27.72139 45.26285 28.61806 45.96223 29.34732 46.81404 29.90324 47.66586 30.45618 48.41905 30.73413 49.07361 30.73413 49.89853 30.73413 50.47836 30.35455 50.80711 29.59538L52.83057 30.71321H53.38649L52.51375 27.81105C52.06541 26.35251 51.83827 25.35126 51.83827 24.81027 51.83827 24.24239 52.03853 23.95847 52.44202 23.95847 52.69905 23.95847 52.98299 24.09296 53.29382 24.36794 53.60466 24.6429 54.04103 25.06134 54.59995 25.62323V25.62025C55.02736 26.08351 55.4189 26.57668 55.77156 27.09673 55.20369 27.3478 54.91975 27.72438 54.91975 28.21754 54.91975 28.72563 55.09311 29.2696 55.43982 29.84645 55.78651 30.42628 56.26173 30.71321 56.87146 30.71321 57.38554 30.71321 57.64258 30.4502 57.64258 29.92117 57.64258 29.50572 57.49313 28.91095 57.19724 28.13983 58.29414 28.25938 59.25056 29.09625 60.06952 30.65642L60.75096 30.68631C63.91614 37.97308 63.22572 45.85463 58.27023 50.80711 55.22461 53.85574 51.07314 55.29036 46.62874 55.20369ZM60.75096 30.68631C59.73456 28.3652 58.39307 26.20058 56.76686 24.25735 56.74504 24.11188 56.73299 23.96503 56.73097 23.81798 56.73097 23.31586 56.87146 22.89442 57.14943 22.55371 57.42441 22.21597 57.76512 22.04561 58.16562 22.04561 59.05031 22.04561 60.29964 22.83466 61.91362 24.39781 61.91063 24.27826 61.90465 24.1587 61.90465 24.03618 61.90465 23.59981 61.94052 22.93628 62.01225 22.04561L64.20305 22.55968C64.20305 23.15746 64.21202 23.6267 64.23296 23.97638 64.26285 24.44563 64.33159 24.9627 64.43022 25.52162 64.48999 25.85039 64.63943 26.1672 64.88452 26.46309L65.44043 27.10869C65.7962 27.52354 66.1733 27.91956 66.57022 28.29526 66.75552 28.45963 66.91693 28.59114 67.0544 28.68379 67.1632 28.76031 67.28972 28.80763 67.42203 28.82129 67.58643 28.82129 67.6701 28.71667 67.6701 28.50446 67.6701 28.29526 67.51468 27.7991 67.20384 27.01901 66.62401 25.56645 66.3311 24.4845 66.3311 23.77913 66.3311 23.25609 66.4686 22.84064 66.7376 22.5298 67.0053 22.22075 67.39902 22.0503 67.8076 22.06653 68.89851 22.06653 70.20763 22.87051 71.73193 24.4815V25.62025C70.65297 24.34702 69.86989 23.7074 69.38867 23.7074 69.0629 23.7074 68.9015 23.90764 68.9015 24.30516 68.9015 24.60405 69.09578 25.24963 69.48433 26.2479 70.0522 27.70047 70.33614 28.74657 70.33614 29.3802 70.34839 29.7288 70.22894 30.06921 70.00139 30.33363 69.79189 30.5805 69.48233 30.71999 69.15855 30.71321 68.66539 30.71321 68.1005 30.48308 67.46388 30.01682 66.82726 29.55055 65.96947 28.71368 64.88452 27.5062 65.04292 28.28928 65.37767 29.36526 65.88577 30.73413L63.4678 30.26788C62.97714 29.23485 62.57813 28.16066 62.27527 27.05788 62.15572 26.59161 62.06606 26.1134 62.00029 25.62323 61.53244 25.15329 61.04376 24.70457 60.53577 24.27826 60.3399 24.12593 60.09949 24.04195 59.85132 24.03915 59.64839 24.03099 59.45421 24.12245 59.33127 24.28424 59.19467 24.47763 59.12724 24.71133 59.13997 24.94775 59.13997 25.24664 59.19678 25.58737 59.30736 25.97293 59.42094 26.36148 59.66603 27.08775 60.05157 28.15776L60.97214 30.69528ZM9.3132 39.43462C6.73383 39.48245 4.32184 38.64856 2.55545 36.88217-1.48544 32.84126-.6426 25.44391 4.44139 20.36288 9.5224 15.2789 19.2361 16.74641 20.96066 18.47395 22.35645 19.86674 24.1587 29.91222 19.0747 34.99321 16.21439 37.85353 12.62482 39.37186 9.3102 39.43462ZM46.03098 38.36462H46.52711V37.73697H46.02798ZM47.30719 38.36462H47.80334V35.77928L49.1782 37.1392H49.76103L48.6731 36.05725 49.95233 34.01288H49.36053L48.29352 35.73146 47.80334 35.23532V34.00989H47.30719ZM50.34386 38.36462H50.84V37.73697H50.34386ZM51.7815 37.99998H52.27763V37.1392H52.7917V36.7357H52.27763V34.59271C52.27763 34.48212 52.29556 34.40741 52.3374 34.36855 52.37328 34.3297 52.44798 34.30878 52.55858 34.30878 52.63739 34.3053 52.7163 34.31535 52.7917 34.33867V33.91725C52.65761 33.89174 52.5216 33.87778 52.38522 33.8754 52.22542 33.86464 52.06682 33.91016 51.9369 34.00392 51.8304 34.09537 51.77292 34.23148 51.7815 34.37155V36.73271H51.36006V37.1392H51.7815ZM41.13527 37.22887C41.37737 37.22887 41.58359 37.193 41.75395 37.1153 41.92432 37.04356 42.05284 36.93297 42.1425 36.78651 42.23216 36.64006 42.277 36.46971 42.277 36.26945H41.75096C41.73305 36.60121 41.52681 36.76859 41.12929 36.76859 40.95724 36.77824 40.78636 36.73552 40.63911 36.64604 40.52235 36.56883 40.45432 36.43623 40.45978 36.29636 40.45978 36.19174 40.50462 36.10208 40.59428 36.03334 40.68396 35.9616 40.83339 35.90182 41.04262 35.854L41.52083 35.73744C41.768 35.69449 41.99913 35.5861 42.19034 35.42361 42.3308 35.28613 42.39954 35.10081 42.39954 34.86769 42.40332 34.6814 42.34903 34.49857 42.24411 34.34465 42.13065 34.18643 41.97244 34.06567 41.78983 33.99794 41.57492 33.91286 41.34538 33.87122 41.11435 33.8754 40.70787 33.8754 40.39703 33.96506 40.1908 34.13843 39.98457 34.31474 39.87697 34.58376 39.86502 34.94241H40.39105C40.403 34.83183 40.42094 34.74814 40.44186 34.69135 40.46497 34.63147 40.49945 34.57668 40.54349 34.52995 40.67499 34.40143 40.87823 34.33568 41.15321 34.33568 41.339 34.32642 41.52342 34.37323 41.68222 34.47017 41.80667 34.5455 41.88257 34.68039 41.88248 34.82584 41.88606 34.92786 41.84451 35.02629 41.7689 35.09483 41.6603 35.17844 41.53319 35.23482 41.39828 35.25923L40.93204 35.3728C40.77043 35.41196 40.61172 35.46187 40.4568 35.52225 40.34999 35.56679 40.25108 35.62836 40.1639 35.70456 40.08759 35.7726 40.0283 35.85759 39.99054 35.95264 39.95628 36.05675 39.94003 36.16583 39.94272 36.27542 39.94272 36.56236 40.05032 36.79549 40.26851 36.96883 40.51868 37.15305 40.82503 37.2449 41.13527 37.22887ZM44.2287 37.22887C44.43712 37.23236 44.64355 37.18842 44.83246 37.10034 45.09935 36.9768 45.3021 36.74696 45.39137 36.4667 45.42824 36.34416 45.45123 36.21783 45.46011 36.09013H44.958C44.94563 36.28072 44.86253 36.45984 44.72485 36.59225 44.58487 36.7152 44.40286 36.77945 44.21675 36.77158 44.04987 36.77536 43.88669 36.72266 43.7535 36.62213 43.614 36.51085 43.51009 36.3613 43.4546 36.19174 43.38248 35.97606 43.3481 35.74959 43.35298 35.52225 43.34729 35.30435 43.38287 35.08737 43.45758 34.88263 43.51747 34.72194 43.62218 34.58186 43.75946 34.47914 43.89635 34.38211 44.06093 34.33179 44.2287 34.33568 44.65312 34.33568 44.90717 34.58675 44.99385 35.08887H45.49298C45.47803 34.85793 45.4117 34.63326 45.2987 34.43132 45.19669 34.25418 45.04495 34.11072 44.86234 34.01886 44.66188 33.91963 44.44043 33.8704 44.21675 33.8754 43.95772 33.86862 43.70238 33.93716 43.48149 34.07266 43.26898 34.21342 43.1018 34.41269 43.00029 34.64651 42.88144 34.92288 42.82336 35.22147 42.82994 35.52225 42.82994 35.77629 42.85983 36.00941 42.92558 36.21864 42.98326 36.417 43.0798 36.6019 43.20952 36.7626 43.32887 36.91324 43.48259 37.0332 43.65784 37.1123 43.83717 37.19319 44.03204 37.23393 44.2287 37.23186ZM46.03098 37.1392H46.52711V34.01288H46.02798ZM50.34386 37.1392H50.84V34.01288H50.34386ZM35.25026 35.2921C35.01115 35.2921 34.6525 34.68237 34.18623 33.46593 33.72296 32.24947 33.26567 30.54584 32.81436 28.35503 33.65422 29.28755 34.33568 30.33363 34.85573 31.49329 35.37878 32.64998 35.63881 33.64525 35.63881 34.47914 35.64708 34.68098 35.6103 34.88213 35.5312 35.06795 35.4565 35.21738 35.36383 35.2921 35.25325 35.2921ZM49.18419 29.92117C48.52365 29.92117 47.896 29.35927 47.30421 28.23846 46.71541 27.11467 46.41953 26.08052 46.41953 25.13605 46.41953 24.77739 46.5062 24.49046 46.68253 24.2693 46.83835 24.05788 47.08643 23.93445 47.34904 23.93753 48.00957 23.93753 48.63423 24.49944 49.21707 25.62622 49.80287 26.753 50.09578 27.79314 50.09578 28.74358 50.11362 29.05222 50.02615 29.35777 49.8477 29.61034 49.6893 29.81458 49.44241 29.93024 49.18419 29.92117ZM40.672 29.90025C40.23563 29.90025 39.82018 29.57149 39.42566 28.90497 39.02814 28.24146 38.8279 27.38068 38.8279 26.31664 40.51958 26.79187 41.36542 27.66759 41.36542 28.9498 41.36542 29.58344 41.13527 29.90025 40.672 29.90025Z" fill="#f7931e"/>
</svg>
