<svg xmlns="http://www.w3.org/2000/svg" xmlns:xlink="http://www.w3.org/1999/xlink" xmlns:inkscape="http://www.inkscape.org/namespaces/inkscape" version="1.1" width="80.1" height="77.73" viewBox="0 0 80.1 77.73">
<path transform="matrix(1,0,0,-1,4.185501,74.80785)" d="M30.49802 28.84221 30.51894 28.81232 27.5331 21.60027C24.66791 23.43451 22.48796 26.16292 21.33127 29.36226L29.03648 30.66838 29.04843 30.65344C29.52505 30.74101 30.01134 30.55939 30.3137 30.18071 30.61618 29.80203 30.68582 29.28775 30.49503 28.84221ZM28.00833 35.20543C28.47577 35.33334 28.83493 35.70805 28.94302 36.18048 29.05113 36.65292 28.89063 37.14647 28.52539 37.46498L28.53137 37.49786 22.67027 42.74026C20.88225 39.82985 20.11462 36.40683 20.48843 33.01163L28.00233 35.17853 28.00833 35.20543ZM31.43054 41.1233C31.82237 40.83728 32.33994 40.79025 32.7769 41.00098 33.21387 41.21169 33.4994 41.64586 33.51973 42.13054L33.54962 42.1455 33.99794 49.97623C30.60352 49.5794 27.43796 48.06297 25.00156 45.66634L31.41858 41.11435 31.43054 41.12033ZM33.70204 32.90402 35.86296 31.86092 38.0209 32.89804 38.5589 35.22932 37.06448 37.09137H34.66145L33.16704 35.22932 33.70204 32.90105ZM38.18529 42.15445C38.2059 41.66927 38.49223 41.23491 38.93011 41.02467 39.36798 40.81458 39.88603 40.8628 40.27747 41.1502L40.30138 41.14125 46.67955 45.66335C44.25153 48.04117 41.10956 49.5554 37.73697 49.97324L38.17932 42.15746 38.18529 42.15445ZM70.6918 24.31113 53.43729 2.84834C52.5269 1.72237 51.15523 1.0695 49.70724 1.07298L22.02768 1.06401C20.57968 1.06291 19.20921 1.71797 18.3006 2.84537L1.03711 24.30516C.13728 25.43076-.20044 26.90515 .11954 28.3102L6.27654 55.07518C6.59932 56.47992 7.54678 57.65752 8.85591 58.2822L33.78871 70.19865C35.09764 70.82422 36.61934 70.82422 37.92825 70.19865L62.87004 58.28816C64.17915 57.6635 65.1266 56.48291 65.4494 55.08115L71.61238 28.31618C71.93517 26.91142 71.59743 25.43793 70.6918 24.31113ZM60.86156 30.45917C60.73602 30.48904 60.5537 30.53688 60.42818 30.56079 59.90811 30.65942 59.4867 30.63551 58.99652 30.67436 57.95044 30.78494 57.08965 30.87462 56.32152 31.11671 56.00769 31.23625 55.78352 31.60986 55.67593 31.7623L55.07518 31.93863C55.39539 34.26164 55.28899 36.62373 54.76135 38.90858 54.23282 41.21677 53.28456 43.40807 51.9638 45.37343 52.11922 45.51392 52.41212 45.77095 52.49281 45.84866 52.51674 46.11765 52.49582 46.39561 52.77377 46.6915 53.36256 47.24445 54.10081 47.70174 54.99448 48.25168 55.4189 48.50275 55.81042 48.66115 56.23485 48.97498 56.33047 49.04669 56.46199 49.16028 56.5636 49.24098 57.28093 49.81184 57.44531 50.79517 56.93123 51.44075 56.41716 52.08635 55.4189 52.14612 54.70456 51.57526 54.60295 51.49455 54.46545 51.38994 54.3728 51.31224 53.97229 50.96553 53.72423 50.6248 53.38649 50.26614 52.65125 49.51894 52.0415 48.89726 51.375 48.44595 51.08508 48.27858 50.66068 48.33537 50.46939 48.34732L49.9015 47.94382C46.63243 51.3744 42.22917 53.50165 37.50981 53.93045L37.47395 54.59695C37.27968 54.78227 37.04654 54.94067 36.98677 55.34416 36.92102 56.14517 37.0316 57.00894 37.15714 58.04907 37.22588 58.53624 37.33946 58.93973 37.36038 59.46875 37.36337 59.58832 37.35738 59.76465 37.35738 59.89317 37.35738 60.80775 36.68788 61.55197 35.86296 61.55197 35.04105 61.55197 34.37155 60.80775 34.37155 59.89317L34.37454 59.85132C34.37454 59.72878 34.36855 59.57635 34.37454 59.46875 34.39246 58.93973 34.50604 58.53624 34.57478 58.04907 34.70032 57.00894 34.80792 56.14517 34.74216 55.34119 34.65736 55.04329 34.48941 54.7759 34.25797 54.57007L34.2221 53.93942C29.47255 53.55804 25.03453 51.42421 21.77065 47.95279 21.58961 48.07793 21.41028 48.20544 21.23264 48.33537 20.96365 48.29948 20.69466 48.2158 20.34497 48.42203 19.67845 48.87036 19.06873 49.49203 18.33347 50.23924 17.99574 50.5979 17.75066 50.93863 17.35014 51.28235 17.26048 51.36006 17.12003 51.46765 17.01839 51.54536 16.7229 51.78487 16.35826 51.92325 15.97827 51.9399 15.52058 51.9642 15.07875 51.76883 14.78873 51.41386 14.27464 50.76826 14.43903 49.78195 15.15636 49.21109L15.17726 49.19615 15.48811 48.94807C15.91252 48.63423 16.30107 48.47285 16.72548 48.22478 17.61914 47.67184 18.35739 47.21455 18.94618 46.66461 19.17334 46.41953 19.21518 45.98912 19.24507 45.80383L19.72328 45.37642C17.08215 41.41621 15.99652 36.62024 16.67468 31.90875L16.05301 31.72943C15.88861 31.51422 15.65549 31.17947 15.4104 31.08084 14.64227 30.83875 13.7785 30.75208 12.7354 30.64148 12.24522 30.59964 11.8238 30.62355 11.30077 30.52493 11.19017 30.504 11.03177 30.46513 10.90324 30.43526L10.8913 30.42928 10.87036 30.4233C9.98866 30.21109 9.42378 29.40112 9.6061 28.6061 9.7884 27.80807 10.64919 27.32388 11.53389 27.51517L11.55482 27.51816 11.5847 27.52713 11.97026 27.6138C12.47835 27.75128 12.84898 27.95154 13.30925 28.12788 14.29556 28.48056 15.11452 28.77646 15.90953 28.89302 16.24428 28.91992 16.59697 28.6868 16.77031 28.59114L17.41888 28.70174C18.87975 24.1883 21.9415 20.36539 26.02672 17.95389L25.75774 17.30234C25.85637 17.05127 25.96397 16.70757 25.88924 16.45947 25.59933 15.7063 25.10318 14.91426 24.5383 14.02956 24.2663 13.62308 23.98535 13.30627 23.73729 12.83702 23.67752 12.72644 23.60278 12.55309 23.546 12.43652 23.16344 11.6146 23.44438 10.67012 24.18262 10.31444 24.92384 9.95578 25.8444 10.33536 26.24492 11.1573V11.16327C26.30469 11.27985 26.3824 11.43228 26.43022 11.54286 26.63943 12.02705 26.71118 12.44249 26.86061 12.91174 27.25513 13.90402 27.47333 14.94415 28.01729 15.59273 28.16673 15.77205 28.40584 15.83781 28.65988 15.90656L28.99763 16.51926C33.42847 14.81194 38.33344 14.7992 42.77315 16.4834L43.08997 15.90953C43.347 15.82585 43.62794 15.78401 43.8551 15.44627 44.26158 14.75285 44.53954 13.93094 44.87729 12.93564 45.02673 12.4694 45.09845 12.05394 45.31065 11.56976 45.35849 11.45917 45.43918 11.30077 45.49597 11.18419 45.8935 10.35927 46.81703 9.9827 47.55826 10.34135 48.29651 10.69402 48.57745 11.64148 48.19489 12.46341 48.13512 12.57999 48.0604 12.75035 48.00061 12.86392 47.75253 13.33018 47.47159 13.64401 47.19962 14.05348 46.63173 14.93817 46.16547 15.67044 45.87555 16.42361 45.756 16.81216 45.89647 17.05127 45.98912 17.30234 45.93532 17.36809 45.81277 17.73273 45.74106 17.90608 49.84134 20.33629 52.90498 24.1892 54.34889 28.73163 54.54018 28.70174 54.87492 28.64195 54.9855 28.61806 55.20967 28.76749 55.4159 28.95877 55.82239 28.92888 56.6174 28.81232 57.43636 28.51642 58.42267 28.16374 58.88293 27.98442 59.25056 27.78117 59.76166 27.64668 59.86926 27.61679 60.02467 27.58987 60.1502 27.56299L60.1771 27.55402 60.19803 27.55104C61.08571 27.35976 61.94351 27.84393 62.12582 28.64195 62.30515 29.43698 61.74326 30.24696 60.86156 30.45917ZM49.01682 42.73729 43.1886 37.51878V37.50383C42.82167 37.18552 42.66008 36.69096 42.76826 36.21744 42.87646 35.74391 43.23691 35.3686 43.70566 35.24129L43.71463 35.21141 51.2644 33.03554C51.4284 34.70978 51.3193 36.39957 50.94162 38.03883 50.56183 39.70082 49.91158 41.2891 49.01682 42.74026ZM37.02263 26.82176C36.78722 27.2661 36.31757 27.53569 35.81516 27.51517 35.34691 27.49763 34.92337 27.23242 34.7033 26.81877H34.69733L30.90749 19.96837C34.12946 18.86917 37.62439 18.86598 40.84834 19.9594L37.05252 26.82176H37.02263ZM42.66554 30.68631C42.39197 30.73672 42.10942 30.69907 41.85857 30.5787 41.22015 30.27365 40.9376 29.51828 41.21895 28.86911L41.20999 28.85715 44.2287 21.57039C47.11313 23.4118 49.30165 26.16193 50.44846 29.38617L42.6775 30.70125 42.66554 30.68631Z" fill="#326ce5"/>
</svg>
