<svg xmlns="http://www.w3.org/2000/svg" xmlns:xlink="http://www.w3.org/1999/xlink" xmlns:inkscape="http://www.inkscape.org/namespaces/inkscape" version="1.1" width="79.7" height="62.88" viewBox="0 0 79.7 62.88">
<path transform="matrix(1,0,0,-1,3.9850465,67.305408)" d="M6.5037 63.32135C7.20009 62.06606 7.92636 60.99007 8.68553 60.06352 9.42378 60.10239 12.0689 58.70062 12.60689 58.50037 14.1252 57.65752 15.78401 56.6174 17.29037 55.61316 18.79973 54.60593 20.15965 53.63457 21.09218 52.92322 21.55844 52.56456 21.92307 52.27165 22.14424 52.0684 22.23132 51.99619 22.30952 51.91388 22.37737 51.82332 22.39032 51.804 22.40038 51.78278 22.40726 51.76056 22.42259 51.71404 22.41832 51.66333 22.39531 51.62009 22.37138 51.57336 22.32726 51.54028 22.27574 51.53043 22.24806 51.52533 22.21976 51.52533 22.19205 51.53043 22.0217 51.53043 21.58533 52.01761 20.7066 52.77078 18.08978 54.78267 15.33418 56.60745 12.46043 58.23138 10.95406 59.06825 9.60312 59.85132 8.68254 60.06352 8.32637 60.11633 7.96661 60.14134 7.60657 60.13826 6.80617 60.12302 6.01242 59.9891 5.25136 59.74074 6.72786 58.50336 7.9712 57.60072 9.07706 56.90434 7.37344 57.4483 5.54428 57.53198 3.39232 56.50682 4.96445 55.5235 6.28252 54.81215 7.4392 54.28015 10.73587 53.81389 14.18797 52.19992 17.0752 50.36777 18.51878 49.4502 19.77708 48.52963 20.71857 47.77644 21.1878 47.40285 21.58533 47.0681 21.88422 46.79611 22.17711 46.52412 22.40427 46.33583 22.47302 46.16846 22.56268 45.95027 22.41623 45.85762 22.22194 45.99512 22.12631 46.06087 21.95892 46.29997 21.67201 46.56598 21.30069 46.9048 20.91791 47.23079 20.52429 47.54332 19.59177 48.29053 18.34543 49.19316 16.9108 50.10475 14.24178 51.78447 10.23973 53.13243 7.42723 54.28015 5.62796 54.60892 3.76591 54.45947 1.73053 53.1145 3.07251 52.51674 4.23218 52.07141 5.26332 51.73067 7.69025 51.73067 10.9182 50.63974 14.03554 48.97498 17.1499 47.31319 20.13275 45.34654 21.57635 43.67279 21.77362 43.44264 21.52853 43.29619 21.35518 43.46358 19.801 44.94302 16.98253 47.06212 13.88908 48.71194 11.97923 49.7192 7.45413 51.73067 5.26332 51.73067L5.27528 51.7247C3.58061 51.66492 1.8979 51.14186 .25703 49.5847 1.6827 49.23201 2.90215 48.99889 3.97514 48.84047 2.66005 48.57745 1.37486 47.94382 .12253 46.68253 1.09091 46.47333 1.96365 46.3179 2.75868 46.19835 1.77835 45.72311 .84883 44.99086 0 43.86707 1.11482 43.77739 2.10114 43.74153 2.98883 43.73555 1.91284 43.23941 .9086 42.45035 .01195 41.19504 1.60498 41.11435 2.941 41.12033 4.08871 41.18608 2.82742 40.672 1.66179 39.79926 .6665 38.2929 2.64511 38.263 4.21724 38.35864 5.53232 38.52003L5.51439 38.51407C8.47333 38.73225 12.37973 38.13448 14.36731 35.98253 14.52272 35.81216 14.29556 35.62984 14.1521 35.76135 12.21535 37.49487 9.68977 38.23312 5.51439 38.51407H5.5084C3.88547 38.06873 2.3821 37.18105 1.14471 35.30406 2.74673 35.28015 4.07974 35.34293 5.22745 35.4535 3.8257 34.68538 2.61821 33.5287 1.82318 31.5501 3.26678 31.82506 4.47726 32.11797 5.52036 32.42284 4.43541 31.63078 3.52382 30.52193 2.91112 28.85417 3.87949 29.06935 4.74028 29.29053 5.51439 29.5147 4.74515 28.56445 4.21892 27.44115 3.98111 26.24193 5.03319 26.63046 5.9388 27.0011 6.74878 27.36871 5.98065 26.47206 5.39482 25.33331 5.1049 23.81201 6.58438 24.40678 7.79187 24.97168 8.80508 25.50966 7.87856 24.51439 7.18216 23.23814 6.90718 21.4568 8.39302 22.0984 9.83304 22.84143 11.21707 23.6805 9.92291 22.59854 8.93361 21.16092 8.58989 18.93723 10.94508 19.97734 12.59195 20.91881 13.87115 21.79155 13.32121 20.67972 13.0283 19.38255 13.16878 17.7626 15.44627 19.50809 16.8839 20.91881 17.9569 22.16516 17.88515 21.36116 17.94792 20.49141 18.18703 19.52303 19.81894 22.32954 21.44186 23.1455 23.11859 24.08398 20.4436 22.73602 20.84111 21.72281 20.84111 20.54521 22.88248 22.69717 25.72784 24.97466 26.60059 26.40332 25.43494 24.65485 24.9657 22.99605 24.65785 21.53152 18.7011 18.3813 15.07266 17.55937 11.00487 16.30107 12.58298 15.72124 14.27165 15.15636 13.57227 14.35236L11.70724 12.4933C12.89978 12.86392 14.11325 13.38995 15.16832 12.66965 15.06369 11.69229 13.8323 11.19914 12.77724 10.62828 14.63332 11.29778 15.0368 11.14236 15.52698 10.98694 15.76906 9.81232 14.92023 9.18466 14.36731 8.41057 19.04482 11.96727 25.14502 14.77676 29.44296 15.9484 35.48637 17.98378 43.28123 20.09988 45.40033 25.25859L47.52837 33.76779 47.51642 33.75584C47.18465 33.85745 46.78116 33.94414 46.47032 34.15337 46.15341 34.37314 45.90894 34.68208 45.76794 35.04105 45.01477 34.84677 44.45287 34.95137 44.09421 35.30406 43.74452 35.65375 43.59508 36.18875 43.48747 36.77158 42.88074 36.64903 42.40552 36.72374 42.09169 37.00171 41.745 37.30357 41.58359 37.77881 41.49991 38.32875L41.476 38.44533 41.58658 38.49016C41.92561 38.61629 42.23346 38.81404 42.4892 39.06999 42.66367 39.24712 42.74158 39.49768 42.69843 39.74248L42.6805 39.85306 42.77016 39.90088C43.25734 40.17883 43.8013 40.406 44.04938 40.73775 44.18617 40.9164 44.24345 41.14334 44.20778 41.36542 44.13495 41.75116 43.97665 42.1158 43.74452 42.43242L43.66382 42.55197 43.78337 42.63268C44.13605 42.90166 44.51265 43.16766 44.70393 43.40977 44.79958 43.52933 44.8474 43.63692 44.8444 43.73853 44.8444 43.83717 44.79958 43.94775 44.65312 44.08824L44.36021 44.36919 44.7637 44.35124C45.40033 44.32137 45.94429 44.37216 46.3717 44.50966 46.70425 44.606 46.99347 44.81392 47.19064 45.09845 47.16971 45.19708 47.13087 45.28674 47.13087 45.39137 47.16603 46.16397 47.80255 46.7722 48.57597 46.7722 49.34937 46.7722 49.98589 46.16397 50.02106 45.39137 50.02106 45.25986 49.97623 45.1403 49.94336 45.01776 50.47237 44.9759 50.98048 44.98787 51.4587 45.19708L51.46466 45.1941 51.56927 45.23294C52.27464 45.487 52.56755 45.09845 53.72124 46.59587 48.67012 53.1414 41.29666 48.49377 38.84583 41.74799 38.21815 40.02641 34.64651 40.02043 33.61238 41.74799 29.51768 50.56503 17.08414 59.8842 6.5037 63.32135ZM9.07408 56.91031C11.78197 56.03459 14.79172 54.57304 17.35315 52.94116 18.63834 52.1252 19.78305 51.3182 20.6827 50.61285 21.58234 49.90749 22.37437 49.19913 22.53577 48.89427 22.69717 48.5894 22.53577 48.47583 22.29068 48.71495 22.0486 48.94807 21.38507 49.67136 20.49739 50.36777 19.60672 51.06715 18.46498 51.87712 17.19174 52.69008 14.8754 54.1546 11.26788 55.55339 9.07408 56.91031ZM3.99307 48.84047C7.32861 48.79863 11.01682 47.50447 14.25671 45.86061 15.87367 45.03868 17.31429 44.16594 18.42613 43.37988 19.53796 42.59383 20.43463 41.81374 20.61993 41.41621 20.80226 41.01572 20.56015 41.02766 20.35991 41.25183 19.72746 41.94904 19.02211 42.57628 18.25577 43.12283 16.93561 44.0419 15.55228 44.86682 14.11624 45.59161 11.23799 47.03223 7.28975 48.35927 3.99307 48.8375ZM48.57446 46.5331C47.94551 46.5331 47.43573 46.0233 47.43573 45.39435 47.43573 44.7654 47.94551 44.25562 48.57446 44.25562 49.20341 44.25562 49.71321 44.7654 49.71321 45.39435 49.71321 46.0233 49.20341 46.5331 48.57446 46.5331ZM5.08101 46.39261C7.53781 46.17743 10.22179 45.29274 12.6547 44.15099 15.90057 42.62968 18.73698 40.68993 19.92952 39.16862 20.03412 39.03412 19.88768 38.77708 19.69041 38.9833 18.41118 40.2984 15.73918 42.36368 12.52618 43.87004 9.79738 45.12834 5.70567 46.47032 2.77661 46.20132 3.52681 46.291 4.26207 46.46436 5.08101 46.39261ZM53.91551 46.36273C52.8216 44.94302 52.33142 45.09845 51.81436 44.9759 52.0953 43.69072 52.86044 43.22446 53.56282 42.67451L53.38348 42.63866C60.30264 43.97467 65.89474 43.49345 71.73193 43.34401L53.91551 46.36273ZM53.38348 42.63866H53.37752L53.36557 42.59084 53.38348 42.63866ZM51.51547 44.9012C50.96852 44.68002 50.40065 44.67404 49.83276 44.72485 49.59146 44.25243 49.10786 43.95314 48.57745 43.94775 48.02003 43.95045 47.51393 44.27383 47.27731 44.77866 47.06172 44.51901 46.77818 44.32455 46.45837 44.21675 46.04292 44.08224 45.53781 44.04639 44.98488 44.05237 45.04466 43.94775 45.14629 43.84912 45.14926 43.74153 45.14398 43.54926 45.07095 43.36514 44.94302 43.22147 44.72485 42.94649 44.37816 42.71336 44.06133 42.48026 44.32137 42.05882 44.4708 41.70314 44.50667 41.39828 44.54971 41.0989 44.47469 40.79454 44.29745 40.54945 43.98064 40.13103 43.43666 39.9218 42.98535 39.67374 43.00398 39.38182 42.90735 39.0943 42.71637 38.87273 42.4635 38.61758 42.16154 38.41623 41.82867 38.28093 41.90936 37.81467 42.04985 37.43509 42.28896 37.22289 42.54599 36.99574 42.9196 36.91504 43.5592 37.08241L43.72359 37.12425 43.7535 36.95988C43.85213 36.34119 44.0165 35.80916 44.3124 35.51627 44.61128 35.22038 45.04167 35.11278 45.81578 35.35187L45.96223 35.39671 46.01006 35.25325C46.15948 34.82884 46.36871 34.58675 46.63472 34.4104 46.89474 34.23106 47.37296 34.07565 47.70471 33.97105 50.0898 36.56833 52.26268 39.26724 53.33568 42.51909 52.6632 43.04813 51.82332 43.52933 51.51547 44.9012ZM3.00676 43.7475C6.48874 43.98662 9.83026 43.1617 12.57698 41.8765 15.32672 40.5913 17.53249 39.06999 18.47694 37.9701 18.7011 37.71007 18.42015 37.61143 18.26175 37.7549 16.51627 39.31158 14.55649 40.61003 12.44249 41.6105 9.74059 42.84787 5.88799 43.5353 3.00676 43.7475ZM5.58911 41.35046C7.4123 41.2907 9.29526 40.88719 10.98694 40.2984 13.24649 39.51532 15.23405 38.46324 16.20842 37.36934 16.34293 37.2199 16.1875 36.98976 15.98724 37.16312 14.94415 38.07172 13.11497 39.23438 10.8883 40.0055 9.17271 40.58832 6.06732 41.10837 4.10963 41.19205 4.69844 41.25781 4.98238 41.37138 5.58911 41.35046ZM8.72737 36.00644C9.99165 35.90482 11.37549 35.60892 12.7354 34.78998 12.86392 34.71227 12.88185 34.3835 12.58894 34.52098 10.0305 35.7225 8.62576 35.9855 5.24539 35.44753 6.39908 35.8301 7.45712 36.10805 8.7244 36.00644ZM8.60782 33.65123C9.80336 33.75584 10.95107 33.65721 12.48434 33.0415 12.61584 32.9877 12.72343 32.66492 12.38571 32.76056 9.82426 33.48685 8.89774 33.7409 5.55025 32.44972 6.38712 33.13417 7.4093 33.54364 8.60782 33.65123ZM12.44847 31.59792C13.39594 31.66666 14.34637 31.67563 15.24004 31.57997 15.39546 31.56204 15.40443 31.26614 15.2221 31.27512 13.38477 31.37564 11.54207 31.26036 9.73163 30.9314 9.00534 30.79391 8.46735 30.80289 5.53232 29.56252 6.3901 30.25891 7.90544 30.91347 9.67184 31.23625 10.59142 31.40453 11.51924 31.52429 12.45146 31.59492ZM16.27419 30.13338C16.57007 30.12442 16.45947 29.82256 16.2921 29.82553 14.11624 29.85542 12.39467 29.431 10.68805 28.94383 9.33868 28.51682 8.02211 27.99239 6.74878 27.3747 7.5946 28.06213 8.8798 28.7406 10.60736 29.23375 12.33789 29.72989 14.33742 30.2081 16.27419 30.13637ZM17.85228 28.94383C17.95987 28.95877 18.16609 28.69276 17.90608 28.64494 15.72423 28.23547 14.18797 27.84692 12.54411 27.28801 11.89851 27.06685 10.8106 26.66933 8.829 25.53357 9.6061 26.33757 10.78967 27.00407 12.45445 27.56598 14.12222 28.13385 16.0291 28.67184 17.85228 28.94084ZM18.78181 27.4285C19.00597 27.46436 19.07173 27.16847 18.84158 27.12364 15.20418 26.40332 13.58124 25.46185 11.24995 23.7044 12.75632 25.26756 15.12646 26.84567 18.78181 27.4285ZM20.56015 26.0895C20.82018 26.12834 20.88893 25.82947 20.62292 25.7906 18.01666 25.40205 16.20842 24.13779 13.8831 21.81548 14.76482 23.28897 16.8839 25.52162 20.56015 26.0895ZM21.67201 24.92384C21.8095 24.94179 22.01273 24.70567 21.74075 24.62497 21.03569 24.42073 20.36269 24.11896 19.74123 23.72832 19.19725 23.37564 18.84456 23.13055 17.9569 22.21298 18.28864 22.94525 18.84158 23.51015 19.57683 23.97638 20.31508 24.44563 21.09814 24.85213 21.66902 24.92384Z" fill="#008080"/>
</svg>
