<svg xmlns="http://www.w3.org/2000/svg" xmlns:xlink="http://www.w3.org/1999/xlink" xmlns:inkscape="http://www.inkscape.org/namespaces/inkscape" version="1.1" width="69.85" height="84.09" viewBox="0 0 69.85 84.09">
<path transform="matrix(1,0,0,-1,-.93927767,78.65238)" d="M66.80484 69.49509C57.11923 73.25653 22.01273 74.66696 21.95355 53.71944 11.71024 47.16194 4.92708 36.47986 4.92708 25.03265 4.92438 15.734 10.07762 7.20058 18.30838 2.87405 26.53912-1.45256 36.49013-.85889 44.14801 4.4157 51.806 9.69017 55.90807 18.77573 54.7999 28.00812 53.69174 37.24042 47.55597 45.09717 38.86734 48.40947 37.05551 49.10857 33.11862 50.34654 29.97467 50.08023 25.48933 47.2277 20.01947 41.3663 17.43683 35.52673 25.17612 44.73831 39.8668 42.77463 44.91524 31.85435 49.96397 20.93376 41.94315 8.47064 29.91191 8.54207 25.08734 8.53429 20.50307 10.6466 17.37405 14.3189 12.93564 19.54425 11.79153 25.21138 12.707 30.74997 15.86621 50.16153 38.88617 61.20438 56.0032 65.4485 50.42097 62.49255 40.3498 57.6375 33.30363 52.34637 53.84378 44.4194 57.17871 61.73428 66.80484 69.49509Z" fill="#47a141"/>
</svg>
