<svg xmlns="http://www.w3.org/2000/svg" xmlns:xlink="http://www.w3.org/1999/xlink" xmlns:inkscape="http://www.inkscape.org/namespaces/inkscape" version="1.1" width="70.12" height="79.7" viewBox="0 0 70.12 79.7">
<path transform="matrix(1,0,0,-1,-.8038864,75.714939)" d="M66.94292 50.54231H60.03694V71.52988L37.5926 52.53825V71.26059H34.13931V52.74L13.42105 71.73193V50.54231H4.789V19.46565H13.42133V0L34.13991 19.00627V.47401H37.5932V18.54718L58.31117 .07411V19.46535H66.94351V50.54231ZM56.58453 64.0847V50.54231H40.57935L56.58453 64.0847ZM16.87433 63.88266 31.42725 50.54231H16.87433V63.88266ZM8.24199 22.91835V47.08902H31.69713L13.42075 28.81322V22.91835H8.24199ZM16.87433 7.85344V19.46565H16.87463V27.38246L34.139 44.64714V23.69215L16.87433 7.85344ZM54.85818 7.77931 37.59291 23.17448V44.64775L54.85818 27.38246V7.77931ZM63.49052 22.91835H58.31087V28.81322L40.03479 47.08902H63.49052V22.91835Z" fill="#1fb8cd"/>
</svg>
