<svg xmlns="http://www.w3.org/2000/svg" xmlns:xlink="http://www.w3.org/1999/xlink" xmlns:inkscape="http://www.inkscape.org/namespaces/inkscape" version="1.1" width="83.7" height="52.07" viewBox="0 0 83.7 52.07">
<path transform="matrix(1,0,0,-1,5.910431,60.880273)" d="M50.63496 56.86041C45.10185 56.82335 39.80643 54.60612 35.89764 50.68967 27.85907 42.63058 27.69588 29.63724 35.52942 21.3788L42.68767 28.53705C38.80219 32.84416 38.97246 39.4403 43.07492 43.54128 47.17738 47.64224 53.77354 47.81001 58.07924 43.92294L65.24348 51.09285C61.30211 54.83069 56.06677 56.89757 50.63496 56.86041ZM21.13103 56.83112C15.69833 56.86688 10.4628 54.7978 6.52222 51.05789L13.66881 43.91129C17.97392 47.80693 24.57825 47.63986 28.6808 43.53142L33.86374 52.4193 33.56575 52.65901C29.97188 55.34038 25.61487 56.80222 21.13103 56.83112ZM65.99127 50.33908 58.85036 43.19247C62.76324 38.88896 62.60603 32.27089 58.49321 28.15807 54.38037 24.04524 47.7623 23.88802 43.45879 27.8009L36.26556 20.60739C44.54044 12.79549 57.5281 12.98297 65.57405 21.0305 73.61996 29.07803 73.80489 42.0658 65.99127 50.33908ZM5.77441 50.30978C-1.92271 42.20079-1.9254 29.4853 5.76843 21.37312L12.93266 28.53734C9.17151 32.68326 9.16635 39.00543 12.9207 43.15752ZM28.6808 28.1222C24.55621 23.99283 17.96196 23.90495 13.68645 27.78326L6.52222 20.62502C13.90254 13.65268 25.24127 12.92787 33.44322 18.9946L33.8521 19.32787Z" fill="#f9ab00"/>
</svg>
